<?xml version="1.0" encoding="UTF-8" standalone="no"?>
<svg
   preserveAspectRatio="xMidYMid"
   width="409.58569"
   height="409.58569"
   viewBox="0 0 409.58569 409.5857"
   version="1.1"
   id="svg18"
   sodipodi:docname="cran-foreach-logo.svg"
   inkscape:version="1.4.2 (2aeb623e1d, 2025-05-12)"
   xmlns:inkscape="http://www.inkscape.org/namespaces/inkscape"
   xmlns:sodipodi="http://sodipodi.sourceforge.net/DTD/sodipodi-0.dtd"
   xmlns:xlink="http://www.w3.org/1999/xlink"
   xmlns="http://www.w3.org/2000/svg"
   xmlns:svg="http://www.w3.org/2000/svg"
   xmlns:rdf="http://www.w3.org/1999/02/22-rdf-syntax-ns#"
   xmlns:cc="http://creativecommons.org/ns#"
   xmlns:dc="http://purl.org/dc/elements/1.1/">
  <sodipodi:namedview
     pagecolor="#ffffff"
     bordercolor="#666666"
     borderopacity="1"
     objecttolerance="10"
     gridtolerance="10"
     guidetolerance="10"
     inkscape:pageopacity="0"
     inkscape:pageshadow="2"
     inkscape:window-width="2560"
     inkscape:window-height="1403"
     id="namedview200"
     showgrid="false"
     lock-margins="true"
     fit-margin-top="0"
     fit-margin-left="0"
     fit-margin-right="0"
     fit-margin-bottom="0"
     inkscape:zoom="1"
     inkscape:cx="289"
     inkscape:cy="273.5"
     inkscape:window-x="0"
     inkscape:window-y="0"
     inkscape:window-maximized="1"
     inkscape:current-layer="g2709"
     inkscape:snap-bbox="true"
     inkscape:showpageshadow="2"
     inkscape:pagecheckerboard="0"
     inkscape:deskcolor="#d1d1d1" />
  <metadata
     id="metadata22">
    <rdf:RDF>
      <cc:Work
         rdf:about="">
        <dc:format>image/svg+xml</dc:format>
        <dc:type
           rdf:resource="http://purl.org/dc/dcmitype/StillImage" />
        <dc:title />
      </cc:Work>
    </rdf:RDF>
  </metadata>
  <defs
     id="defs12">
    <linearGradient
       id="gradientFill-1"
       x1="0.7414425"
       x2="590.86261"
       y1="3.6658268"
       y2="593.78699"
       gradientUnits="userSpaceOnUse"
       spreadMethod="pad"
       gradientTransform="scale(1.2219423,0.81836924)">
      <stop
         offset="0"
         stop-color="rgb(203,206,208)"
         stop-opacity="1"
         id="stop2" />
      <stop
         offset="1"
         stop-color="rgb(132,131,139)"
         stop-opacity="1"
         id="stop4" />
    </linearGradient>
    <linearGradient
       id="gradientFill-2"
       x1="301.02603"
       x2="703.0675"
       y1="151.4006"
       y2="553.44208"
       gradientUnits="userSpaceOnUse"
       spreadMethod="pad"
       gradientTransform="scale(0.9899476,1.0101545)">
      <stop
         offset="0"
         stop-color="rgb(39,109,195)"
         stop-opacity="1"
         id="stop7" />
      <stop
         offset="1"
         stop-color="rgb(22,92,170)"
         stop-opacity="1"
         id="stop9" />
    </linearGradient>
    <linearGradient
       xlink:href="#gradientFill-1"
       id="linearGradient885"
       gradientUnits="userSpaceOnUse"
       gradientTransform="scale(1.2219423,0.81836924)"
       x1="0.7414425"
       y1="3.6658268"
       x2="590.86261"
       y2="593.78699"
       spreadMethod="pad" />
    <linearGradient
       xlink:href="#gradientFill-2"
       id="linearGradient887"
       gradientUnits="userSpaceOnUse"
       gradientTransform="matrix(1.6841374,0,0,1.718514,-484.06269,-232.47933)"
       x1="301.02603"
       y1="151.4006"
       x2="703.0675"
       y2="553.44208"
       spreadMethod="pad" />
    <linearGradient
       xlink:href="#gradientFill-1"
       id="linearGradient1011"
       gradientUnits="userSpaceOnUse"
       gradientTransform="scale(1.2219423,0.81836924)"
       x1="0.7414425"
       y1="3.6658268"
       x2="590.86261"
       y2="593.78699"
       spreadMethod="pad" />
    <linearGradient
       xlink:href="#gradientFill-2"
       id="linearGradient1013"
       gradientUnits="userSpaceOnUse"
       gradientTransform="scale(0.9899476,1.0101545)"
       x1="301.02603"
       y1="151.4006"
       x2="703.0675"
       y2="553.44208"
       spreadMethod="pad" />
    <linearGradient
       xlink:href="#gradientFill-1"
       id="linearGradient1035"
       gradientUnits="userSpaceOnUse"
       gradientTransform="scale(1.2219423,0.81836924)"
       x1="0.7414425"
       y1="3.6658268"
       x2="590.86261"
       y2="593.78699"
       spreadMethod="pad" />
    <linearGradient
       xlink:href="#gradientFill-2"
       id="linearGradient1037"
       gradientUnits="userSpaceOnUse"
       gradientTransform="scale(0.9899476,1.0101545)"
       x1="301.02603"
       y1="151.4006"
       x2="703.0675"
       y2="553.44208"
       spreadMethod="pad" />
    <linearGradient
       xlink:href="#gradientFill-2"
       id="linearGradient1039"
       gradientUnits="userSpaceOnUse"
       gradientTransform="matrix(1.6841374,0,0,1.718514,-484.06269,-232.47933)"
       x1="301.02603"
       y1="151.4006"
       x2="703.0675"
       y2="553.44208"
       spreadMethod="pad" />
    <linearGradient
       xlink:href="#gradientFill-1"
       id="linearGradient1061"
       gradientUnits="userSpaceOnUse"
       gradientTransform="scale(1.2219423,0.81836924)"
       x1="0.7414425"
       y1="3.6658268"
       x2="590.86261"
       y2="593.78699"
       spreadMethod="pad" />
    <linearGradient
       xlink:href="#gradientFill-2"
       id="linearGradient1063"
       gradientUnits="userSpaceOnUse"
       gradientTransform="scale(0.9899476,1.0101545)"
       x1="301.02603"
       y1="151.4006"
       x2="703.0675"
       y2="553.44208"
       spreadMethod="pad" />
    <linearGradient
       xlink:href="#gradientFill-1"
       id="linearGradient1087"
       gradientUnits="userSpaceOnUse"
       gradientTransform="scale(1.2219423,0.81836924)"
       x1="0.7414425"
       y1="3.6658268"
       x2="590.86261"
       y2="593.78699"
       spreadMethod="pad" />
    <linearGradient
       xlink:href="#gradientFill-2"
       id="linearGradient1089"
       gradientUnits="userSpaceOnUse"
       gradientTransform="scale(0.9899476,1.0101545)"
       x1="301.02603"
       y1="151.4006"
       x2="703.0675"
       y2="553.44208"
       spreadMethod="pad" />
    <linearGradient
       xlink:href="#gradientFill-2"
       id="linearGradient1091"
       gradientUnits="userSpaceOnUse"
       gradientTransform="matrix(1.6841374,0,0,1.718514,-484.06269,-232.47933)"
       x1="301.02603"
       y1="151.4006"
       x2="703.0675"
       y2="553.44208"
       spreadMethod="pad" />
    <linearGradient
       xlink:href="#gradientFill-1-2"
       id="linearGradient1384"
       gradientUnits="userSpaceOnUse"
       gradientTransform="scale(1.2219423,0.81836924)"
       x1="0.7414425"
       y1="3.6658268"
       x2="590.86261"
       y2="593.78699"
       spreadMethod="pad" />
    <linearGradient
       id="gradientFill-1-2"
       x1="0.7414425"
       x2="590.86261"
       y1="3.6658268"
       y2="593.78699"
       gradientUnits="userSpaceOnUse"
       spreadMethod="pad"
       gradientTransform="scale(1.2219423,0.81836924)">
      <stop
         offset="0"
         stop-color="rgb(203,206,208)"
         stop-opacity="1"
         id="stop2-4" />
      <stop
         offset="1"
         stop-color="rgb(132,131,139)"
         stop-opacity="1"
         id="stop4-7" />
    </linearGradient>
    <linearGradient
       xlink:href="#gradientFill-2-9"
       id="linearGradient1386"
       gradientUnits="userSpaceOnUse"
       gradientTransform="scale(0.9899476,1.0101545)"
       x1="301.02603"
       y1="151.4006"
       x2="703.0675"
       y2="553.44208"
       spreadMethod="pad" />
    <linearGradient
       id="gradientFill-2-9"
       x1="301.02603"
       x2="703.0675"
       y1="151.4006"
       y2="553.44208"
       gradientUnits="userSpaceOnUse"
       spreadMethod="pad"
       gradientTransform="scale(0.9899476,1.0101545)">
      <stop
         offset="0"
         stop-color="rgb(39,109,195)"
         stop-opacity="1"
         id="stop7-3" />
      <stop
         offset="1"
         stop-color="rgb(22,92,170)"
         stop-opacity="1"
         id="stop9-9" />
    </linearGradient>
    <linearGradient
       xlink:href="#gradientFill-1-2"
       id="linearGradient1384-2"
       gradientUnits="userSpaceOnUse"
       gradientTransform="scale(1.2219423,0.81836924)"
       x1="0.7414425"
       y1="3.6658268"
       x2="590.86261"
       y2="593.78699"
       spreadMethod="pad" />
    <linearGradient
       xlink:href="#gradientFill-2-9"
       id="linearGradient1386-0"
       gradientUnits="userSpaceOnUse"
       gradientTransform="scale(0.9899476,1.0101545)"
       x1="301.02603"
       y1="151.4006"
       x2="703.0675"
       y2="553.44208"
       spreadMethod="pad" />
    <linearGradient
       xlink:href="#gradientFill-1-2"
       id="linearGradient1601"
       gradientUnits="userSpaceOnUse"
       gradientTransform="scale(1.2219423,0.81836924)"
       x1="0.7414425"
       y1="3.6658268"
       x2="590.86261"
       y2="593.78699"
       spreadMethod="pad" />
    <linearGradient
       xlink:href="#gradientFill-2-9"
       id="linearGradient1603"
       gradientUnits="userSpaceOnUse"
       gradientTransform="scale(0.9899476,1.0101545)"
       x1="301.02603"
       y1="151.4006"
       x2="703.0675"
       y2="553.44208"
       spreadMethod="pad" />
    <linearGradient
       xlink:href="#gradientFill-2"
       id="linearGradient1884"
       gradientUnits="userSpaceOnUse"
       gradientTransform="matrix(1.6841374,0,0,1.718514,-484.06269,-232.47933)"
       x1="301.02603"
       y1="151.4006"
       x2="703.0675"
       y2="553.44208"
       spreadMethod="pad" />
    <linearGradient
       xlink:href="#gradientFill-2"
       id="linearGradient1924"
       gradientUnits="userSpaceOnUse"
       gradientTransform="matrix(1.6841374,0,0,1.718514,-484.06269,-232.47933)"
       x1="301.02603"
       y1="151.4006"
       x2="703.0675"
       y2="553.44208"
       spreadMethod="pad" />
    <linearGradient
       xlink:href="#gradientFill-1-2"
       id="linearGradient2078"
       gradientUnits="userSpaceOnUse"
       gradientTransform="scale(1.2219423,0.81836924)"
       x1="0.7414425"
       y1="3.6658268"
       x2="590.86261"
       y2="593.78699"
       spreadMethod="pad" />
    <linearGradient
       xlink:href="#gradientFill-2-9"
       id="linearGradient2080"
       gradientUnits="userSpaceOnUse"
       gradientTransform="scale(0.9899476,1.0101545)"
       x1="301.02603"
       y1="151.4006"
       x2="703.0675"
       y2="553.44208"
       spreadMethod="pad" />
    <linearGradient
       xlink:href="#gradientFill-1-2"
       id="linearGradient2114"
       gradientUnits="userSpaceOnUse"
       gradientTransform="scale(1.2219423,0.81836924)"
       x1="0.7414425"
       y1="3.6658268"
       x2="590.86261"
       y2="593.78699"
       spreadMethod="pad" />
    <linearGradient
       xlink:href="#gradientFill-2-9"
       id="linearGradient2116"
       gradientUnits="userSpaceOnUse"
       gradientTransform="scale(0.9899476,1.0101545)"
       x1="301.02603"
       y1="151.4006"
       x2="703.0675"
       y2="553.44208"
       spreadMethod="pad" />
    <linearGradient
       xlink:href="#gradientFill-1-2"
       id="linearGradient2118"
       gradientUnits="userSpaceOnUse"
       gradientTransform="scale(1.2219423,0.81836924)"
       x1="0.7414425"
       y1="3.6658268"
       x2="590.86261"
       y2="593.78699"
       spreadMethod="pad" />
    <linearGradient
       xlink:href="#gradientFill-2-9"
       id="linearGradient2120"
       gradientUnits="userSpaceOnUse"
       gradientTransform="scale(0.9899476,1.0101545)"
       x1="301.02603"
       y1="151.4006"
       x2="703.0675"
       y2="553.44208"
       spreadMethod="pad" />
    <linearGradient
       xlink:href="#gradientFill-2"
       id="linearGradient2184"
       gradientUnits="userSpaceOnUse"
       gradientTransform="matrix(1.6841374,0,0,1.718514,-484.06269,-232.47933)"
       x1="301.02603"
       y1="151.4006"
       x2="703.0675"
       y2="553.44208"
       spreadMethod="pad" />
    <linearGradient
       xlink:href="#gradientFill-2"
       id="linearGradient2258"
       gradientUnits="userSpaceOnUse"
       gradientTransform="matrix(1.6841374,0,0,1.718514,-484.06269,-232.47933)"
       x1="301.02603"
       y1="151.4006"
       x2="703.0675"
       y2="553.44208"
       spreadMethod="pad" />
    <linearGradient
       xlink:href="#gradientFill-2"
       id="linearGradient2356"
       gradientUnits="userSpaceOnUse"
       gradientTransform="matrix(1.6841374,0,0,1.718514,-484.06269,-232.47933)"
       x1="301.02603"
       y1="151.4006"
       x2="703.0675"
       y2="553.44208"
       spreadMethod="pad" />
    <linearGradient
       xlink:href="#gradientFill-2"
       id="linearGradient2446"
       gradientUnits="userSpaceOnUse"
       gradientTransform="matrix(1.6841374,0,0,1.718514,-484.06269,-232.47933)"
       x1="301.02603"
       y1="151.4006"
       x2="703.0675"
       y2="553.44208"
       spreadMethod="pad" />
    <linearGradient
       inkscape:collect="always"
       xlink:href="#gradientFill-2"
       id="linearGradient1537"
       gradientUnits="userSpaceOnUse"
       gradientTransform="matrix(0.67858217,0,0,0.69243339,-86.274812,-80.53208)"
       x1="301.02603"
       y1="151.4006"
       x2="703.0675"
       y2="553.44208"
       spreadMethod="pad" />
  </defs>
  <g
     id="g893"
     transform="translate(273.27645,-2339.8323)">
    <g
       id="g851"
       transform="matrix(0.50305093,0,0,0.50305093,-734.8305,124.93988)" />
  </g>
  <g
     id="g2721">
    <path
       d="m 290.73522,177.89121 c 0,0 14.95839,4.5138 23.64881,8.9111 3.01539,1.5259 8.23253,4.5707 11.99577,8.5684 3.68647,3.9154 5.48379,7.8829 5.48379,7.8829 l 58.95065,99.3936 -95.28071,0.043 -44.55573,-83.6702 c 0,0 -9.12364,-15.6761 -14.73767,-20.2214 -4.68315,-3.7914 -6.67993,-5.1411 -11.3103,-5.1411 -3.22309,0 -22.63842,0 -22.63842,0 l 0.0178,108.9724 -84.31315,0.036 V 24.30372 h 169.31178 c 0,0 77.11569,1.3908 77.11569,74.75899 0,73.3682 -73.68832,78.8294 -73.68832,78.8294 z m -36.67279,-93.20789 -51.04236,-0.033 -0.0254,47.33189 51.06773,-0.016 c 0,0 23.64881,-0.073 23.64881,-24.0773 0,-24.48639 -23.64881,-23.20529 -23.64881,-23.20529 z"
       fill="url(#gradientFill-2)"
       fill-rule="evenodd"
       id="path1449"
       style="fill:url(#linearGradient1537);stroke-width:0.685473" />
    <g
       aria-label="CRAN"
       transform="matrix(0,-1.0059564,1.0059564,0,-2.81582,-0.91747184)"
       id="text1455"
       style="font-style:normal;font-weight:normal;font-size:121.637px;line-height:1.25;font-family:sans-serif;fill:#95989d;fill-opacity:1;stroke:none;stroke-width:3.0409">
      <path
         d="m -246.60798,106.49507 q -4.15752,2.13815 -8.73079,3.20723 -4.57326,1.06907 -9.62167,1.06907 -17.93671,0 -27.38021,-11.819218 -9.44349,-11.819221 -9.44349,-34.151014 0,-22.391186 9.44349,-34.210406 9.4435,-11.819221 27.38021,-11.819221 5.04841,0 9.68107,1.069076 4.63266,1.069075 8.67139,3.207225 v 19.480926 q -4.51388,-4.157515 -8.79018,-6.058093 -4.21691,-1.959971 -8.73078,-1.959971 -9.62168,0 -14.5513,7.661706 -4.87023,7.602312 -4.87023,22.628758 0,14.967053 4.87023,22.628759 4.92962,7.602312 14.5513,7.602312 4.51387,0 8.73078,-1.900578 4.2763,-1.959971 8.79018,-6.117486 z"
         style="font-style:normal;font-variant:normal;font-weight:bold;font-stretch:normal;font-family:monospace;-inkscape-font-specification:'monospace Bold';fill:#95989d;fill-opacity:1;stroke-width:3.0409"
         id="path2610" />
      <path
         d="m -189.65003,67.176861 q 2.61329,0.534538 4.51387,2.494509 1.95997,1.900578 4.75145,7.483526 l 16.03612,31.894074 h -19.24335 l -10.69075,-22.391183 q -0.47515,-0.950289 -1.24726,-2.613295 -4.69205,-10.037428 -11.04711,-10.037428 h -5.58295 v 35.041906 h -17.52095 V 20.375124 h 25.30145 q 17.1052,0 24.52933,6.058093 7.48353,6.058093 7.48353,19.718498 0,9.146533 -4.45448,14.551302 -4.45448,5.404769 -12.8289,6.473844 z m -22.50998,-32.072256 v 24.172978 h 8.25564 q 7.18656,0 10.275,-2.791474 3.14783,-2.850867 3.14783,-9.324712 0,-6.473844 -3.08844,-9.265318 -3.08844,-2.791474 -10.33439,-2.791474 z"
         style="font-style:normal;font-variant:normal;font-weight:bold;font-stretch:normal;font-family:monospace;-inkscape-font-specification:'monospace Bold';fill:#95989d;fill-opacity:1;stroke-width:3.0409"
         id="path2612" />
      <path
         d="m -127.76246,36.411252 -8.25563,36.289164 h 16.57066 z m -10.69075,-16.036128 h 21.4409 l 23.935403,88.673846 h -17.520953 l -5.46416,-21.916039 h -23.46027 l -5.34537,21.916039 h -17.52096 z"
         style="font-style:normal;font-variant:normal;font-weight:bold;font-stretch:normal;font-family:monospace;-inkscape-font-specification:'monospace Bold';fill:#95989d;fill-opacity:1;stroke-width:3.0409"
         id="path2614" />
      <path
         d="m -84.049168,20.375124 h 18.827602 L -40.51405,84.816602 V 20.375124 h 15.442197 V 109.04897 H -43.780669 L -68.606971,44.607495 v 64.441475 h -15.442197 z"
         style="font-style:normal;font-variant:normal;font-weight:bold;font-stretch:normal;font-family:monospace;-inkscape-font-specification:'monospace Bold';fill:#95989d;fill-opacity:1;stroke-width:3.0409"
         id="path2616" />
    </g>
  </g>
  <text
     xml:space="preserve"
     style="font-style:normal;font-weight:normal;font-size:26.3852px;line-height:1.25;font-family:sans-serif;fill:#808080;fill-opacity:1;stroke:none;stroke-width:0.659628"
     x="-1.4247932"
     y="444.68103"
     id="text1473"><tspan
       sodipodi:role="line"
       id="tspan1471"
       x="-1.4247932"
       y="444.68103"><tspan
         id="tspan1469"
         x="-1.4247932"
         y="444.68103"
         style="font-style:normal;font-variant:normal;font-weight:normal;font-stretch:normal;font-family:Laksaman;-inkscape-font-specification:Laksaman;fill:#808080;fill-opacity:1;stroke-width:0.659628">gray-ish 60 (blue 4)</tspan></tspan></text>
  <g
     id="g2645"
     transform="translate(0.75595468)" />
  <g
     id="g2709"
     transform="matrix(1.0046899,0,0,1.0046899,-1.5049151,-1.8479948)">
    <path
       id="text2"
       style="font-size:66.3555px;text-align:start;writing-mode:lr-tb;direction:ltr;text-anchor:start;fill:#1f65b7;fill-opacity:1;stroke-width:1.32927"
       d="m 44.475234,321.98793 c -6.173279,0 -10.729384,1.26754 -13.671787,3.80605 -2.942402,2.50973 -4.413603,6.40409 -4.413603,11.68311 v 3.37508 h -7.703037 v 11.07815 h 7.703037 v 37.38583 h 15.489152 v -37.38583 h 13.24081 v -11.07815 h -13.24081 v -3.37508 c 0,-1.96162 0.432705,-3.33098 1.298118,-4.10985 0.865414,-0.80774 2.395171,-1.21247 4.587551,-1.21247 h 8.567584 v -10.16684 z m 295.540086,0 v 67.32822 h 15.48915 v -23.84124 c 0,-4.41362 0.92398,-7.86258 2.77019,-10.34343 1.84621,-2.50968 4.3839,-3.76454 7.61477,-3.76454 1.32698,0 2.51055,0.29022 3.54905,0.86717 1.03849,0.54806 1.86065,1.32693 2.46643,2.33658 0.46154,0.75005 0.77974,1.91834 0.95282,3.50496 0.20192,1.58654 0.30116,4.4984 0.30116,8.73892 v 17.69855 4.80303 h 15.57743 v -29.51144 c 0,-6.54829 -1.45593,-11.53709 -4.36947,-14.96988 -2.88471,-3.43282 -7.12523,-5.15094 -12.72156,-5.15094 -3.17319,0 -6.07232,0.67961 -8.69741,2.03546 -2.62508,1.32693 -5.10679,3.40393 -7.44341,6.23094 V 321.98793 Z M 86.059167,339.68389 c -8.365658,0 -14.914804,2.25006 -19.645728,6.75023 -4.702076,4.50014 -7.051381,10.73108 -7.051381,18.69287 0,7.9618 2.349305,14.19276 7.051381,18.69293 4.730924,4.50013 11.28007,6.75023 19.645728,6.75023 8.336812,0 14.842683,-2.2501 19.515913,-6.75023 4.70208,-4.50017 7.05138,-10.73113 7.05138,-18.69293 0,-7.96179 -2.3493,-14.19273 -7.05138,-18.69287 -4.67323,-4.50017 -11.179101,-6.75023 -19.515913,-6.75023 z m 69.449353,0 c -3.60588,0 -6.70607,0.73561 -9.30231,2.20677 -2.56739,1.44237 -4.84805,3.75099 -6.8385,6.9242 v -7.96269 h -15.48915 v 48.46398 h 15.48915 V 366.9885 c 0,-4.75977 1.06908,-8.4098 3.20375,-10.94831 2.16351,-2.56739 5.23575,-3.85025 9.21663,-3.85025 1.35584,0 2.69722,0.15782 4.02418,0.47513 1.35583,0.28848 2.7099,0.75173 4.06573,1.38637 l -0.0415,-14.01969 c -1.15388,-0.14424 -2.03457,-0.23076 -2.64038,-0.25962 -0.6058,-0.0576 -1.16831,-0.0881 -1.68755,-0.0881 z m 35.30883,0 c -8.36565,0 -14.94279,2.26535 -19.73142,6.79435 -4.75977,4.529 -7.13965,10.74468 -7.13965,18.64875 0,8.04837 2.42316,14.30989 7.26948,18.7812 4.87517,4.44245 11.69661,6.66196 20.46613,6.66196 3.66359,0 7.32889,-0.35888 10.99248,-1.08003 3.66356,-0.69235 7.32629,-1.73085 10.98986,-3.1155 v -11.94267 c -3.60589,1.96156 -7.12608,3.43278 -10.5589,4.41357 -3.40395,0.95195 -6.7358,1.42794 -9.9955,1.42794 -4.03859,0 -7.18207,-0.9087 -9.43214,-2.72606 -2.25007,-1.81735 -3.56348,-4.54342 -3.93849,-8.17816 h 36.2175 v -4.41357 c 0,-7.67336 -2.29332,-13.80509 -6.88002,-18.39176 -4.55783,-4.58667 -10.64369,-6.88002 -18.25933,-6.88002 z m 57.50666,0 c -3.34626,0 -6.69338,0.21636 -10.03966,0.64903 -3.34625,0.40386 -6.6781,1.00969 -9.9955,1.81736 v 11.81291 c 2.452,-1.32699 5.10679,-2.32218 7.96266,-2.98567 2.85587,-0.66349 5.94337,-0.99435 9.26077,-0.99435 4.09628,0 7.10993,0.5778 9.04269,1.73169 1.93275,1.12503 2.89999,2.91181 2.89999,5.36382 v 1.21242 h -9.13095 c -8.36565,0 -14.51009,1.32611 -18.43329,3.98005 -3.89436,2.65392 -5.84152,6.82319 -5.84152,12.50608 0,4.67324 1.55774,8.48103 4.67322,11.42342 3.14432,2.91358 7.22706,4.3695 12.24645,4.3695 3.72128,0 6.88002,-0.66177 9.47625,-1.98874 2.59625,-1.3558 4.93286,-3.50664 7.00984,-6.44905 v 7.18379 h 15.61897 v -27.64993 c 0,-7.75987 -1.94717,-13.35707 -5.84153,-16.78985 -3.86552,-3.46164 -10.16771,-5.19248 -18.90839,-5.19248 z m 63.43387,0 c -8.74067,0 -15.57743,2.25006 -20.51029,6.75023 -4.93286,4.47128 -7.39927,10.70223 -7.39927,18.69287 0,7.99065 2.46641,14.23691 7.39927,18.73705 4.93286,4.47133 11.76962,6.70611 20.51029,6.70611 2.50969,0 5.00668,-0.22906 7.48753,-0.69063 2.50971,-0.43271 4.97612,-1.09702 7.3993,-1.9913 v -12.6774 c -1.84623,1.4135 -3.86727,2.47995 -6.05962,3.20115 -2.16354,0.72115 -4.45689,1.08262 -6.88004,1.08262 -4.32706,0 -7.70218,-1.25486 -10.12532,-3.76454 -2.39432,-2.53857 -3.5906,-6.07405 -3.5906,-10.60306 0,-4.52896 1.19628,-8.04658 3.5906,-10.5563 2.42314,-2.53853 5.79826,-3.80865 10.12532,-3.80865 2.27891,0 4.47302,0.34614 6.57886,1.03849 2.1347,0.69231 4.25495,1.75879 6.3608,3.20115 v -12.6333 c -2.45201,-0.89425 -4.91843,-1.55861 -7.3993,-1.99128 -2.45199,-0.46159 -4.94899,-0.69321 -7.48753,-0.69321 z m -121.02621,10.29928 c 2.76932,0 5.0041,0.90865 6.70608,2.72602 1.73082,1.78851 2.59624,4.15313 2.59624,7.09552 h -20.12083 c 0.46154,-3.17316 1.62986,-5.59632 3.50491,-7.26945 1.87506,-1.70198 4.31351,-2.55209 7.3136,-2.55209 z m -104.672503,0.77887 c 3.375112,0 5.956057,1.23953 7.744577,3.72039 1.788519,2.45201 2.684509,6.00019 2.684509,10.64456 0,4.64439 -0.89599,8.20786 -2.684509,10.68873 -1.78852,2.45201 -4.369465,3.67887 -7.744577,3.67887 -3.432804,0 -6.057019,-1.22686 -7.874387,-3.67887 -1.78852,-2.48087 -2.68451,-6.04434 -2.68451,-10.68873 0,-4.64437 0.89599,-8.19255 2.68451,-10.64456 1.817368,-2.48086 4.441583,-3.72039 7.874387,-3.72039 z m 163.347473,16.7457 h 8.04832 v 1.77325 c 0,3.14436 -0.99522,5.77113 -2.98566,7.87697 -1.99045,2.077 -4.44418,3.1155 -7.35774,3.1155 -2.33662,0 -4.16667,-0.54983 -5.49366,-1.64604 -1.2981,-1.12503 -1.94715,-2.66746 -1.94715,-4.62906 0,-2.1347 0.80685,-3.75099 2.42228,-4.84718 1.64427,-1.0962 4.08274,-1.64344 7.31361,-1.64344 z" />
    <g
       aria-label="Network"
       id="text2543"
       style="font-style:normal;font-weight:normal;font-size:37.2778px;line-height:1.25;font-family:sans-serif;fill:#1f65b7;fill-opacity:1;stroke:none;stroke-width:0.931944"
       transform="translate(1.7775231,4)" />
    <text
       xml:space="preserve"
       style="font-size:66.35546617px;text-align:start;writing-mode:lr-tb;direction:ltr;text-anchor:start;fill:#000000;stroke-width:0.995332"
       x="28.371855"
       y="369.11688"
       id="text1"><tspan
         sodipodi:role="line"
         id="tspan1"
         style="stroke-width:0.995332;font-size:66.35546617px"
         x="28.371855"
         y="369.11688" /></text>
  </g>
</svg>
