<?xml version="1.0" encoding="UTF-8" standalone="no"?>
<svg
   preserveAspectRatio="xMidYMid"
   width="724"
   height="811"
   viewBox="0 0 724 811"
   version="1.1"
   id="svg5"
   sodipodi:docname="r-base2-logo.svg"
   inkscape:version="1.4.2 (2aeb623e1d, 2025-05-12)"
   xmlns:inkscape="http://www.inkscape.org/namespaces/inkscape"
   xmlns:sodipodi="http://sodipodi.sourceforge.net/DTD/sodipodi-0.dtd"
   xmlns="http://www.w3.org/2000/svg"
   xmlns:svg="http://www.w3.org/2000/svg">
  <sodipodi:namedview
     id="namedview5"
     pagecolor="#ffffff"
     bordercolor="#000000"
     borderopacity="0.25"
     inkscape:showpageshadow="2"
     inkscape:pageopacity="0.0"
     inkscape:pagecheckerboard="0"
     inkscape:deskcolor="#d1d1d1"
     inkscape:zoom="0.93"
     inkscape:cx="362.36559"
     inkscape:cy="280.10753"
     inkscape:window-width="2560"
     inkscape:window-height="1403"
     inkscape:window-x="0"
     inkscape:window-y="0"
     inkscape:window-maximized="1"
     inkscape:current-layer="svg5" />
  <defs
     id="defs4">
    <linearGradient
       id="gradientFill-1"
       x1="0.7414425"
       x2="590.86261"
       y1="3.6658268"
       y2="593.78699"
       gradientUnits="userSpaceOnUse"
       spreadMethod="pad"
       gradientTransform="scale(1.2219423,0.81836924)">
      <stop
         offset="0"
         stop-color="rgb(203,206,208)"
         stop-opacity="1"
         id="stop1" />
      <stop
         offset="1"
         stop-color="rgb(132,131,139)"
         stop-opacity="1"
         id="stop2" />
    </linearGradient>
    <linearGradient
       id="gradientFill-2"
       x1="301.02603"
       x2="703.0675"
       y1="151.4006"
       y2="553.44208"
       gradientUnits="userSpaceOnUse"
       spreadMethod="pad"
       gradientTransform="scale(0.9899476,1.0101545)">
      <stop
         offset="0"
         stop-color="rgb(39,109,195)"
         stop-opacity="1"
         id="stop3" />
      <stop
         offset="1"
         stop-color="rgb(22,92,170)"
         stop-opacity="1"
         id="stop4" />
    </linearGradient>
  </defs>
  <path
     d="M 361.453,485.937 C 162.329,485.937 0.906,377.828 0.906,244.469 0.906,111.109 162.329,3 361.453,3 560.578,3 722,111.109 722,244.469 722,377.828 560.578,485.937 361.453,485.937 Z M 416.641,97.406 c -151.352,0 -274.047,73.908 -274.047,165.078 0,91.17 122.695,165.078 274.047,165.078 151.351,0 263.046,-50.529 263.046,-165.078 0,-114.513 -111.695,-165.078 -263.046,-165.078 z"
     fill="url(#gradientFill-1)"
     fill-rule="evenodd"
     id="path4"
     style="fill:url(#gradientFill-1)" />
  <path
     d="m 550,377 c 0,0 21.822,6.585 34.5,13 4.399,2.226 12.01,6.668 17.5,12.5 5.378,5.712 8,11.5 8,11.5 L 696,559 557,559.062 492,437 c 0,0 -13.31,-22.869 -21.5,-29.5 -6.832,-5.531 -9.745,-7.5 -16.5,-7.5 -4.702,0 -33.026,0 -33.026,0 L 421,558.974 298,559.026 V 152.938 h 247 c 0,0 112.5,2.029 112.5,109.062 0,107.033 -107.5,115 -107.5,115 z m -53.5,-135.976 -74.463,-0.048 -0.037,69.05 74.5,-0.024 c 0,0 34.5,-0.107 34.5,-35.125 0,-35.722 -34.5,-33.853 -34.5,-33.853 z"
     fill="url(#gradientFill-2)"
     fill-rule="evenodd"
     id="path5"
     style="fill:url(#gradientFill-2)" />
  <path
     style="font-weight:bold;font-size:270.613px;fill:#276dc3;stroke-width:3.38941"
     d="m 100.54972,750.81117 q 15.19556,0 23.12367,-11.09936 8.06025,-11.09937 8.06025,-32.24101 0,-21.14164 -8.06025,-32.241 -7.92811,-11.09936 -23.12367,-11.09936 -15.195554,0 -23.38794,11.2315 -8.06025,11.09936 -8.06025,32.10886 0,21.00951 8.06025,32.24101 8.192386,11.09936 23.38794,11.09936 z M 69.10153,655.01311 q 9.778009,-12.94926 21.670182,-19.02748 11.892168,-6.21036 27.351998,-6.21036 27.352,0 44.92599,21.80232 17.57399,21.67018 17.57399,55.89321 0,34.22303 -17.57399,56.02535 -17.57399,21.67018 -44.92599,21.67018 -15.45983,0 -27.351998,-6.07822 Q 78.879539,772.87776 69.10153,759.9285 v 21.40591 H 21.797108 V 575.73195 H 69.10153 Z m 212.73776,59.72513 q -14.79915,0 -22.33086,5.02114 -7.39957,5.02114 -7.39957,14.79915 0,8.9852 5.94608,14.13847 6.07822,5.02114 16.78118,5.02114 13.34566,0 22.46299,-9.51374 9.11734,-9.64587 9.11734,-24.04861 v -5.41755 z m 72.27798,-17.83826 v 84.43443 h -47.70082 v -21.93445 q -9.51374,13.4778 -21.40592,19.68815 -11.89217,6.07822 -28.93762,6.07822 -22.99153,0 -37.39427,-13.34566 -14.27061,-13.47779 -14.27061,-34.8837 0,-26.03065 17.83826,-38.18709 17.97039,-12.15645 56.28962,-12.15645 h 27.88054 v -3.69978 q 0,-11.2315 -8.85307,-16.38478 -8.85306,-5.28541 -27.61627,-5.28541 -15.19555,0 -28.27694,3.03911 -13.08139,3.03911 -24.31289,9.11734 v -36.07293 q 15.19556,-3.69979 30.52325,-5.54968 15.32769,-1.98203 30.65538,-1.98203 40.03698,0 57.7431,15.85623 17.83826,15.7241 17.83826,51.26848 z m 159.61942,-58.93232 v 35.94079 q -15.19556,-6.34249 -29.33403,-9.51374 -14.13847,-3.17125 -26.69132,-3.17125 -13.4778,0 -20.08456,3.43552 -6.47463,3.30338 -6.47463,10.30655 0,5.68182 4.889,8.72093 5.02114,3.03911 17.83826,4.4926 l 8.32453,1.18921 q 36.33719,4.62474 48.89004,15.19556 12.55285,10.57082 12.55285,33.16595 0,23.65221 -17.44185,35.54438 -17.44186,11.89217 -52.0613,11.89217 -14.66701,0 -30.3911,-2.37843 -15.59196,-2.2463 -32.10887,-6.87103 v -35.94079 q 14.13847,6.87103 28.93762,10.30655 14.93128,3.43551 30.25897,3.43551 13.87421,0 20.87737,-3.83192 7.00317,-3.83192 7.00317,-11.36363 0,-6.34249 -4.889,-9.3816 -4.75687,-3.17125 -19.15961,-4.88901 l -8.32453,-1.05708 q -31.58032,-3.96406 -44.26531,-14.66702 -12.68498,-10.70295 -12.68498,-32.50527 0,-23.52007 16.1205,-34.88371 16.1205,-11.36363 49.41859,-11.36363 13.08139,0 27.48413,1.98203 14.40274,1.98203 31.31606,6.21036 z m 193.18174,68.9746 v 13.4778 H 596.32122 q 1.71776,16.64904 12.02431,24.97356 10.30655,8.32452 28.80548,8.32452 14.93129,0 30.52325,-4.36046 15.72409,-4.4926 32.241,-13.4778 v 36.46933 q -16.78118,6.3425 -33.56235,9.51374 -16.78118,3.30338 -33.56236,3.30338 -40.16912,0 -62.49998,-20.34883 -22.19872,-20.48096 -22.19872,-57.3467 0,-36.20506 21.80232,-56.95029 21.93445,-20.74524 60.25367,-20.74524 34.88371,0 55.76108,21.00951 21.00951,21.0095 21.00951,56.15748 z m -48.62578,-15.72409 q 0,-13.4778 -7.92811,-21.67019 -7.79598,-8.32452 -20.48097,-8.32452 -13.74206,0 -22.33085,7.79598 -8.5888,7.66385 -10.70296,22.19873 z"
     id="text5"
     aria-label="base" />
</svg>
