<?xml version="1.0" encoding="UTF-8" standalone="no"?>
<svg
   xmlns:dc="http://purl.org/dc/elements/1.1/"
   xmlns:cc="http://creativecommons.org/ns#"
   xmlns:rdf="http://www.w3.org/1999/02/22-rdf-syntax-ns#"
   xmlns:svg="http://www.w3.org/2000/svg"
   xmlns="http://www.w3.org/2000/svg"
   xmlns:xlink="http://www.w3.org/1999/xlink"
   xmlns:sodipodi="http://sodipodi.sourceforge.net/DTD/sodipodi-0.dtd"
   xmlns:inkscape="http://www.inkscape.org/namespaces/inkscape"
   preserveAspectRatio="xMidYMid"
   width="409.58569"
   height="409.58569"
   viewBox="0 0 409.58569 409.5857"
   version="1.1"
   id="svg18"
   sodipodi:docname="Rtwitter_logo_final.svg"
   inkscape:version="1.0.1 (3bc2e813f5, 2020-09-07)">
  <sodipodi:namedview
     pagecolor="#ffffff"
     bordercolor="#666666"
     borderopacity="1"
     objecttolerance="10"
     gridtolerance="10"
     guidetolerance="10"
     inkscape:pageopacity="0"
     inkscape:pageshadow="2"
     inkscape:window-width="1920"
     inkscape:window-height="1016"
     id="namedview200"
     showgrid="false"
     lock-margins="true"
     fit-margin-top="0"
     fit-margin-left="0"
     fit-margin-right="0"
     fit-margin-bottom="0"
     inkscape:zoom="1"
     inkscape:cx="289.38268"
     inkscape:cy="273.77465"
     inkscape:window-x="0"
     inkscape:window-y="27"
     inkscape:window-maximized="1"
     inkscape:current-layer="svg18"
     inkscape:snap-bbox="true" />
  <metadata
     id="metadata22">
    <rdf:RDF>
      <cc:Work
         rdf:about="">
        <dc:format>image/svg+xml</dc:format>
        <dc:type
           rdf:resource="http://purl.org/dc/dcmitype/StillImage" />
        <dc:title></dc:title>
      </cc:Work>
    </rdf:RDF>
  </metadata>
  <defs
     id="defs12">
    <linearGradient
       id="gradientFill-1"
       x1="0.7414425"
       x2="590.86261"
       y1="3.6658268"
       y2="593.78699"
       gradientUnits="userSpaceOnUse"
       spreadMethod="pad"
       gradientTransform="scale(1.2219423,0.81836924)">
      <stop
         offset="0"
         stop-color="rgb(203,206,208)"
         stop-opacity="1"
         id="stop2" />
      <stop
         offset="1"
         stop-color="rgb(132,131,139)"
         stop-opacity="1"
         id="stop4" />
    </linearGradient>
    <linearGradient
       id="gradientFill-2"
       x1="301.02603"
       x2="703.0675"
       y1="151.4006"
       y2="553.44208"
       gradientUnits="userSpaceOnUse"
       spreadMethod="pad"
       gradientTransform="scale(0.9899476,1.0101545)">
      <stop
         offset="0"
         stop-color="rgb(39,109,195)"
         stop-opacity="1"
         id="stop7" />
      <stop
         offset="1"
         stop-color="rgb(22,92,170)"
         stop-opacity="1"
         id="stop9" />
    </linearGradient>
    <linearGradient
       xlink:href="#gradientFill-1"
       id="linearGradient885"
       gradientUnits="userSpaceOnUse"
       gradientTransform="scale(1.2219423,0.81836924)"
       x1="0.7414425"
       y1="3.6658268"
       x2="590.86261"
       y2="593.78699"
       spreadMethod="pad" />
    <linearGradient
       xlink:href="#gradientFill-2"
       id="linearGradient887"
       gradientUnits="userSpaceOnUse"
       gradientTransform="matrix(1.6841374,0,0,1.718514,-484.06269,-232.47933)"
       x1="301.02603"
       y1="151.4006"
       x2="703.0675"
       y2="553.44208"
       spreadMethod="pad" />
    <linearGradient
       xlink:href="#gradientFill-1"
       id="linearGradient1011"
       gradientUnits="userSpaceOnUse"
       gradientTransform="scale(1.2219423,0.81836924)"
       x1="0.7414425"
       y1="3.6658268"
       x2="590.86261"
       y2="593.78699"
       spreadMethod="pad" />
    <linearGradient
       xlink:href="#gradientFill-2"
       id="linearGradient1013"
       gradientUnits="userSpaceOnUse"
       gradientTransform="scale(0.9899476,1.0101545)"
       x1="301.02603"
       y1="151.4006"
       x2="703.0675"
       y2="553.44208"
       spreadMethod="pad" />
    <linearGradient
       xlink:href="#gradientFill-1"
       id="linearGradient1035"
       gradientUnits="userSpaceOnUse"
       gradientTransform="scale(1.2219423,0.81836924)"
       x1="0.7414425"
       y1="3.6658268"
       x2="590.86261"
       y2="593.78699"
       spreadMethod="pad" />
    <linearGradient
       xlink:href="#gradientFill-2"
       id="linearGradient1037"
       gradientUnits="userSpaceOnUse"
       gradientTransform="scale(0.9899476,1.0101545)"
       x1="301.02603"
       y1="151.4006"
       x2="703.0675"
       y2="553.44208"
       spreadMethod="pad" />
    <linearGradient
       xlink:href="#gradientFill-2"
       id="linearGradient1039"
       gradientUnits="userSpaceOnUse"
       gradientTransform="matrix(1.6841374,0,0,1.718514,-484.06269,-232.47933)"
       x1="301.02603"
       y1="151.4006"
       x2="703.0675"
       y2="553.44208"
       spreadMethod="pad" />
    <linearGradient
       xlink:href="#gradientFill-1"
       id="linearGradient1061"
       gradientUnits="userSpaceOnUse"
       gradientTransform="scale(1.2219423,0.81836924)"
       x1="0.7414425"
       y1="3.6658268"
       x2="590.86261"
       y2="593.78699"
       spreadMethod="pad" />
    <linearGradient
       xlink:href="#gradientFill-2"
       id="linearGradient1063"
       gradientUnits="userSpaceOnUse"
       gradientTransform="scale(0.9899476,1.0101545)"
       x1="301.02603"
       y1="151.4006"
       x2="703.0675"
       y2="553.44208"
       spreadMethod="pad" />
    <linearGradient
       xlink:href="#gradientFill-1"
       id="linearGradient1087"
       gradientUnits="userSpaceOnUse"
       gradientTransform="scale(1.2219423,0.81836924)"
       x1="0.7414425"
       y1="3.6658268"
       x2="590.86261"
       y2="593.78699"
       spreadMethod="pad" />
    <linearGradient
       xlink:href="#gradientFill-2"
       id="linearGradient1089"
       gradientUnits="userSpaceOnUse"
       gradientTransform="scale(0.9899476,1.0101545)"
       x1="301.02603"
       y1="151.4006"
       x2="703.0675"
       y2="553.44208"
       spreadMethod="pad" />
    <linearGradient
       xlink:href="#gradientFill-2"
       id="linearGradient1091"
       gradientUnits="userSpaceOnUse"
       gradientTransform="matrix(1.6841374,0,0,1.718514,-484.06269,-232.47933)"
       x1="301.02603"
       y1="151.4006"
       x2="703.0675"
       y2="553.44208"
       spreadMethod="pad" />
    <linearGradient
       xlink:href="#gradientFill-1-2"
       id="linearGradient1384"
       gradientUnits="userSpaceOnUse"
       gradientTransform="scale(1.2219423,0.81836924)"
       x1="0.7414425"
       y1="3.6658268"
       x2="590.86261"
       y2="593.78699"
       spreadMethod="pad" />
    <linearGradient
       id="gradientFill-1-2"
       x1="0.7414425"
       x2="590.86261"
       y1="3.6658268"
       y2="593.78699"
       gradientUnits="userSpaceOnUse"
       spreadMethod="pad"
       gradientTransform="scale(1.2219423,0.81836924)">
      <stop
         offset="0"
         stop-color="rgb(203,206,208)"
         stop-opacity="1"
         id="stop2-4" />
      <stop
         offset="1"
         stop-color="rgb(132,131,139)"
         stop-opacity="1"
         id="stop4-7" />
    </linearGradient>
    <linearGradient
       xlink:href="#gradientFill-2-9"
       id="linearGradient1386"
       gradientUnits="userSpaceOnUse"
       gradientTransform="scale(0.9899476,1.0101545)"
       x1="301.02603"
       y1="151.4006"
       x2="703.0675"
       y2="553.44208"
       spreadMethod="pad" />
    <linearGradient
       id="gradientFill-2-9"
       x1="301.02603"
       x2="703.0675"
       y1="151.4006"
       y2="553.44208"
       gradientUnits="userSpaceOnUse"
       spreadMethod="pad"
       gradientTransform="scale(0.9899476,1.0101545)">
      <stop
         offset="0"
         stop-color="rgb(39,109,195)"
         stop-opacity="1"
         id="stop7-3" />
      <stop
         offset="1"
         stop-color="rgb(22,92,170)"
         stop-opacity="1"
         id="stop9-9" />
    </linearGradient>
    <linearGradient
       xlink:href="#gradientFill-1-2"
       id="linearGradient1384-2"
       gradientUnits="userSpaceOnUse"
       gradientTransform="scale(1.2219423,0.81836924)"
       x1="0.7414425"
       y1="3.6658268"
       x2="590.86261"
       y2="593.78699"
       spreadMethod="pad" />
    <linearGradient
       xlink:href="#gradientFill-2-9"
       id="linearGradient1386-0"
       gradientUnits="userSpaceOnUse"
       gradientTransform="scale(0.9899476,1.0101545)"
       x1="301.02603"
       y1="151.4006"
       x2="703.0675"
       y2="553.44208"
       spreadMethod="pad" />
    <linearGradient
       xlink:href="#gradientFill-1-2"
       id="linearGradient1601"
       gradientUnits="userSpaceOnUse"
       gradientTransform="scale(1.2219423,0.81836924)"
       x1="0.7414425"
       y1="3.6658268"
       x2="590.86261"
       y2="593.78699"
       spreadMethod="pad" />
    <linearGradient
       xlink:href="#gradientFill-2-9"
       id="linearGradient1603"
       gradientUnits="userSpaceOnUse"
       gradientTransform="scale(0.9899476,1.0101545)"
       x1="301.02603"
       y1="151.4006"
       x2="703.0675"
       y2="553.44208"
       spreadMethod="pad" />
    <linearGradient
       xlink:href="#gradientFill-2"
       id="linearGradient1884"
       gradientUnits="userSpaceOnUse"
       gradientTransform="matrix(1.6841374,0,0,1.718514,-484.06269,-232.47933)"
       x1="301.02603"
       y1="151.4006"
       x2="703.0675"
       y2="553.44208"
       spreadMethod="pad" />
    <linearGradient
       xlink:href="#gradientFill-2"
       id="linearGradient1924"
       gradientUnits="userSpaceOnUse"
       gradientTransform="matrix(1.6841374,0,0,1.718514,-484.06269,-232.47933)"
       x1="301.02603"
       y1="151.4006"
       x2="703.0675"
       y2="553.44208"
       spreadMethod="pad" />
    <linearGradient
       xlink:href="#gradientFill-1-2"
       id="linearGradient2078"
       gradientUnits="userSpaceOnUse"
       gradientTransform="scale(1.2219423,0.81836924)"
       x1="0.7414425"
       y1="3.6658268"
       x2="590.86261"
       y2="593.78699"
       spreadMethod="pad" />
    <linearGradient
       xlink:href="#gradientFill-2-9"
       id="linearGradient2080"
       gradientUnits="userSpaceOnUse"
       gradientTransform="scale(0.9899476,1.0101545)"
       x1="301.02603"
       y1="151.4006"
       x2="703.0675"
       y2="553.44208"
       spreadMethod="pad" />
    <linearGradient
       xlink:href="#gradientFill-1-2"
       id="linearGradient2114"
       gradientUnits="userSpaceOnUse"
       gradientTransform="scale(1.2219423,0.81836924)"
       x1="0.7414425"
       y1="3.6658268"
       x2="590.86261"
       y2="593.78699"
       spreadMethod="pad" />
    <linearGradient
       xlink:href="#gradientFill-2-9"
       id="linearGradient2116"
       gradientUnits="userSpaceOnUse"
       gradientTransform="scale(0.9899476,1.0101545)"
       x1="301.02603"
       y1="151.4006"
       x2="703.0675"
       y2="553.44208"
       spreadMethod="pad" />
    <linearGradient
       xlink:href="#gradientFill-1-2"
       id="linearGradient2118"
       gradientUnits="userSpaceOnUse"
       gradientTransform="scale(1.2219423,0.81836924)"
       x1="0.7414425"
       y1="3.6658268"
       x2="590.86261"
       y2="593.78699"
       spreadMethod="pad" />
    <linearGradient
       xlink:href="#gradientFill-2-9"
       id="linearGradient2120"
       gradientUnits="userSpaceOnUse"
       gradientTransform="scale(0.9899476,1.0101545)"
       x1="301.02603"
       y1="151.4006"
       x2="703.0675"
       y2="553.44208"
       spreadMethod="pad" />
    <linearGradient
       xlink:href="#gradientFill-2"
       id="linearGradient2184"
       gradientUnits="userSpaceOnUse"
       gradientTransform="matrix(1.6841374,0,0,1.718514,-484.06269,-232.47933)"
       x1="301.02603"
       y1="151.4006"
       x2="703.0675"
       y2="553.44208"
       spreadMethod="pad" />
    <linearGradient
       xlink:href="#gradientFill-2"
       id="linearGradient2258"
       gradientUnits="userSpaceOnUse"
       gradientTransform="matrix(1.6841374,0,0,1.718514,-484.06269,-232.47933)"
       x1="301.02603"
       y1="151.4006"
       x2="703.0675"
       y2="553.44208"
       spreadMethod="pad" />
    <linearGradient
       xlink:href="#gradientFill-2"
       id="linearGradient2356"
       gradientUnits="userSpaceOnUse"
       gradientTransform="matrix(1.6841374,0,0,1.718514,-484.06269,-232.47933)"
       x1="301.02603"
       y1="151.4006"
       x2="703.0675"
       y2="553.44208"
       spreadMethod="pad" />
    <linearGradient
       xlink:href="#gradientFill-2"
       id="linearGradient2446"
       gradientUnits="userSpaceOnUse"
       gradientTransform="matrix(1.6841374,0,0,1.718514,-484.06269,-232.47933)"
       x1="301.02603"
       y1="151.4006"
       x2="703.0675"
       y2="553.44208"
       spreadMethod="pad" />
    <linearGradient
       inkscape:collect="always"
       xlink:href="#gradientFill-2"
       id="linearGradient1537"
       gradientUnits="userSpaceOnUse"
       gradientTransform="matrix(0.67858217,0,0,0.69243339,-86.274812,-80.53208)"
       x1="301.02603"
       y1="151.4006"
       x2="703.0675"
       y2="553.44208"
       spreadMethod="pad" />
  </defs>
  <g
     id="g893"
     transform="translate(273.27645,-2339.8323)">
    <g
       id="g851"
       transform="matrix(0.50305093,0,0,0.50305093,-734.8305,124.93988)" />
  </g>
  <g
     id="g2721">
    <path
       d="m 290.73522,177.89121 c 0,0 14.95839,4.5138 23.64881,8.9111 3.01539,1.5259 8.23253,4.5707 11.99577,8.5684 3.68647,3.9154 5.48379,7.8829 5.48379,7.8829 l 58.95065,99.3936 -95.28071,0.043 -44.55573,-83.6702 c 0,0 -9.12364,-15.6761 -14.73767,-20.2214 -4.68315,-3.7914 -6.67993,-5.1411 -11.3103,-5.1411 -3.22309,0 -22.63842,0 -22.63842,0 l 0.0178,108.9724 -84.31315,0.036 V 24.30372 h 169.31178 c 0,0 77.11569,1.3908 77.11569,74.75899 0,73.3682 -73.68832,78.8294 -73.68832,78.8294 z m -36.67279,-93.20789 -51.04236,-0.033 -0.0254,47.33189 51.06773,-0.016 c 0,0 23.64881,-0.073 23.64881,-24.0773 0,-24.48639 -23.64881,-23.20529 -23.64881,-23.20529 z"
       fill="url(#gradientFill-2)"
       fill-rule="evenodd"
       id="path1449"
       style="fill:url(#linearGradient1537);stroke-width:0.685473" />
    <g
       aria-label="CRAN"
       transform="matrix(0,-1.0059564,1.0059564,0,-2.81582,-0.91747184)"
       id="text1455"
       style="font-style:normal;font-weight:normal;font-size:121.637px;line-height:1.25;font-family:sans-serif;fill:#95989d;fill-opacity:1;stroke:none;stroke-width:3.0409">
      <path
         d="m -246.60798,106.49507 q -4.15752,2.13815 -8.73079,3.20723 -4.57326,1.06907 -9.62167,1.06907 -17.93671,0 -27.38021,-11.819218 -9.44349,-11.819221 -9.44349,-34.151014 0,-22.391186 9.44349,-34.210406 9.4435,-11.819221 27.38021,-11.819221 5.04841,0 9.68107,1.069076 4.63266,1.069075 8.67139,3.207225 v 19.480926 q -4.51388,-4.157515 -8.79018,-6.058093 -4.21691,-1.959971 -8.73078,-1.959971 -9.62168,0 -14.5513,7.661706 -4.87023,7.602312 -4.87023,22.628758 0,14.967053 4.87023,22.628759 4.92962,7.602312 14.5513,7.602312 4.51387,0 8.73078,-1.900578 4.2763,-1.959971 8.79018,-6.117486 z"
         style="font-style:normal;font-variant:normal;font-weight:bold;font-stretch:normal;font-family:monospace;-inkscape-font-specification:'monospace Bold';fill:#95989d;fill-opacity:1;stroke-width:3.0409"
         id="path2610" />
      <path
         d="m -189.65003,67.176861 q 2.61329,0.534538 4.51387,2.494509 1.95997,1.900578 4.75145,7.483526 l 16.03612,31.894074 h -19.24335 l -10.69075,-22.391183 q -0.47515,-0.950289 -1.24726,-2.613295 -4.69205,-10.037428 -11.04711,-10.037428 h -5.58295 v 35.041906 h -17.52095 V 20.375124 h 25.30145 q 17.1052,0 24.52933,6.058093 7.48353,6.058093 7.48353,19.718498 0,9.146533 -4.45448,14.551302 -4.45448,5.404769 -12.8289,6.473844 z m -22.50998,-32.072256 v 24.172978 h 8.25564 q 7.18656,0 10.275,-2.791474 3.14783,-2.850867 3.14783,-9.324712 0,-6.473844 -3.08844,-9.265318 -3.08844,-2.791474 -10.33439,-2.791474 z"
         style="font-style:normal;font-variant:normal;font-weight:bold;font-stretch:normal;font-family:monospace;-inkscape-font-specification:'monospace Bold';fill:#95989d;fill-opacity:1;stroke-width:3.0409"
         id="path2612" />
      <path
         d="m -127.76246,36.411252 -8.25563,36.289164 h 16.57066 z m -10.69075,-16.036128 h 21.4409 l 23.935403,88.673846 h -17.520953 l -5.46416,-21.916039 h -23.46027 l -5.34537,21.916039 h -17.52096 z"
         style="font-style:normal;font-variant:normal;font-weight:bold;font-stretch:normal;font-family:monospace;-inkscape-font-specification:'monospace Bold';fill:#95989d;fill-opacity:1;stroke-width:3.0409"
         id="path2614" />
      <path
         d="m -84.049168,20.375124 h 18.827602 L -40.51405,84.816602 V 20.375124 h 15.442197 V 109.04897 H -43.780669 L -68.606971,44.607495 v 64.441475 h -15.442197 z"
         style="font-style:normal;font-variant:normal;font-weight:bold;font-stretch:normal;font-family:monospace;-inkscape-font-specification:'monospace Bold';fill:#95989d;fill-opacity:1;stroke-width:3.0409"
         id="path2616" />
    </g>
  </g>
  <text
     xml:space="preserve"
     style="font-style:normal;font-weight:normal;font-size:26.3852px;line-height:1.25;font-family:sans-serif;fill:#808080;fill-opacity:1;stroke:none;stroke-width:0.659628"
     x="-1.4247932"
     y="444.68103"
     id="text1473"><tspan
       sodipodi:role="line"
       id="tspan1471"
       x="-1.4247932"
       y="444.68103"><tspan
         id="tspan1469"
         x="-1.4247932"
         y="444.68103"
         style="font-style:normal;font-variant:normal;font-weight:normal;font-stretch:normal;font-family:Laksaman;-inkscape-font-specification:Laksaman;fill:#808080;fill-opacity:1;stroke-width:0.659628">gray-ish 60 (blue 4)</tspan></tspan></text>
  <g
     id="g2645"
     transform="translate(0.75595468)" />
  <g
     id="g2709"
     transform="matrix(1.0046899,0,0,1.0046899,-1.5049151,-1.8479948)">
    <g
       aria-label="The Comprehensive R"
       id="text1459"
       style="font-style:normal;font-weight:normal;font-size:37.2778px;line-height:1.25;font-family:sans-serif;fill:#1f65b7;fill-opacity:1;stroke:none;stroke-width:0.931944"
       transform="translate(1.0541767,-2)">
      <path
         d="M 39.884471,326.6836 H 30.08041 v 24.82702 H 27.843741 V 326.6836 H 18.03968 v -1.86389 h 21.844791 z"
         style="font-style:normal;font-variant:normal;font-weight:normal;font-stretch:normal;font-family:Laksaman;-inkscape-font-specification:Laksaman;fill:#1f65b7;fill-opacity:1;stroke-width:0.931944"
         id="path2560" />
      <path
         d="m 58.52336,340.70006 v 10.81056 h -2.236668 v -10.81056 q 0,-6.78456 -5.666226,-6.78456 -2.236668,0 -4.06328,1.90117 -1.826612,1.90116 -1.826612,4.13783 v 11.55612 h -2.236669 v -28.33113 h 2.236669 v 12.67445 q 2.311223,-3.80233 6.337226,-3.80233 7.45556,0 7.45556,8.64845 z"
         style="font-style:normal;font-variant:normal;font-weight:normal;font-stretch:normal;font-family:Laksaman;-inkscape-font-specification:Laksaman;fill:#1f65b7;fill-opacity:1;stroke-width:0.931944"
         id="path2562" />
      <path
         d="m 65.196031,342.15389 q 0.111833,3.61595 2.162112,5.81534 2.087557,2.19939 5.554393,2.19939 3.243169,0 6.672726,-1.342 l 0.186389,1.82661 q -3.317724,1.37928 -7.082782,1.37928 -4.286947,0 -7.008227,-2.64672 -2.721279,-2.68401 -2.721279,-6.8964 0,-4.51061 2.609446,-7.45556 2.646724,-2.98222 6.896393,-2.98222 8.014728,0 8.201117,10.10228 z M 78.429651,340.29 q -0.07456,-2.90767 -1.789335,-4.62245 -1.677501,-1.75205 -4.436058,-1.75205 -2.758558,0 -4.622448,1.82661 -1.86389,1.78933 -2.273946,4.54789 z"
         style="font-style:normal;font-variant:normal;font-weight:normal;font-stretch:normal;font-family:Laksaman;-inkscape-font-specification:Laksaman;fill:#1f65b7;fill-opacity:1;stroke-width:0.931944"
         id="path2564" />
      <path
         d="m 115.03637,348.67751 0.671,1.93844 q -3.0195,1.41656 -7.26917,1.41656 -5.51711,0 -9.095782,-4.026 -3.578669,-4.06328 -3.578669,-9.9159 0,-5.81534 3.541392,-9.76678 3.578669,-3.95145 9.133059,-3.95145 4.24967,0 7.26917,1.41656 l -0.671,1.93844 q -3.50411,-1.49111 -6.48633,-1.49111 -4.58517,0 -7.5674,3.50411 -2.982223,3.50412 -2.982223,8.42479 0,4.92067 2.982223,8.46206 2.98223,3.54139 7.5674,3.54139 2.98222,0 6.48633,-1.49111 z"
         style="font-style:normal;font-variant:normal;font-weight:normal;font-stretch:normal;font-family:Laksaman;-inkscape-font-specification:Laksaman;fill:#1f65b7;fill-opacity:1;stroke-width:0.931944"
         id="path2566" />
      <path
         d="m 137.96217,342.04206 q 0,4.24967 -2.72128,7.12006 -2.684,2.87039 -6.89639,2.87039 -4.24967,0 -6.93367,-2.83311 -2.684,-2.87039 -2.684,-7.15734 0,-4.24967 2.72128,-7.12006 2.72128,-2.87039 6.89639,-2.87039 4.21239,0 6.89639,2.87039 2.72128,2.87039 2.72128,7.12006 z m -9.61767,8.12656 q 3.24317,0 5.29345,-2.3485 2.08755,-2.3485 2.08755,-5.77806 0,-3.42956 -2.05027,-5.77806 -2.05028,-2.3485 -5.33073,-2.3485 -3.24317,0 -5.33073,2.3485 -2.05028,2.3485 -2.05028,5.77806 0,3.42956 2.05028,5.77806 2.08756,2.3485 5.33073,2.3485 z"
         style="font-style:normal;font-variant:normal;font-weight:normal;font-stretch:normal;font-family:Laksaman;-inkscape-font-specification:Laksaman;fill:#1f65b7;fill-opacity:1;stroke-width:0.931944"
         id="path2568" />
      <path
         d="m 163.53473,332.05161 q 3.31772,0 5.0325,2.49761 1.71478,2.49761 1.71478,6.3745 v 10.5869 h -2.23667 V 340.961 q 0,-3.13133 -1.26745,-5.06978 -1.23016,-1.97572 -3.83961,-1.97572 -2.12483,0 -3.80234,1.6775 -1.6775,1.6775 -1.6775,3.80233 v 12.11529 h -2.23666 V 339.9545 q 0,-6.039 -4.80884,-6.039 -2.19939,0 -3.98873,1.90117 -1.78933,1.90116 -1.78933,4.13783 v 11.55612 h -2.23667 v -14.35195 q 0,-1.6775 -0.37278,-4.69701 h 2.05028 q 0.37278,1.15562 0.44734,3.39228 2.16211,-3.80233 6.41178,-3.80233 3.87689,0 5.77806,4.24967 2.23667,-4.24967 6.82184,-4.24967 z"
         style="font-style:normal;font-variant:normal;font-weight:normal;font-stretch:normal;font-family:Laksaman;-inkscape-font-specification:Laksaman;fill:#1f65b7;fill-opacity:1;stroke-width:0.931944"
         id="path2570" />
      <path
         d="m 185.1931,332.05161 q 4.13784,0 6.52362,2.90767 2.38577,2.87039 2.38577,7.34372 0,4.21239 -2.3485,6.97095 -2.31122,2.75856 -6.22539,2.75856 -4.73428,0 -7.19462,-4.06328 v 12.89812 h -2.23666 v -23.67141 q 0,-3.50411 -0.14912,-4.73428 h 2.05028 q 0.11184,1.45384 0.11184,3.46684 2.64672,-3.87689 7.08278,-3.87689 z m -0.29822,1.86389 q -2.75856,0 -4.65973,1.78933 -1.90117,1.78934 -1.90117,4.47334 v 3.20589 q 0,2.83311 1.97573,4.80884 1.97572,1.97572 4.80883,1.97572 3.24317,0 4.99523,-2.16211 1.75206,-2.16212 1.75206,-5.74078 0,-3.8769 -1.75206,-6.11356 -1.71478,-2.23667 -5.21889,-2.23667 z"
         style="font-style:normal;font-variant:normal;font-weight:normal;font-stretch:normal;font-family:Laksaman;-inkscape-font-specification:Laksaman;fill:#1f65b7;fill-opacity:1;stroke-width:0.931944"
         id="path2572" />
      <path
         d="m 207.33607,333.99005 q -0.22367,-0.0745 -0.671,-0.0745 -2.46034,0 -4.17511,2.013 -1.67751,1.97572 -1.67751,5.33072 v 10.2514 h -2.23666 v -12.82356 q 0,-4.2124 -0.55917,-6.2254 h 1.90117 q 0.59644,1.19289 0.59644,3.80234 1.78934,-4.21239 5.74078,-4.21239 0.52189,0 1.08106,0.11183 z"
         style="font-style:normal;font-variant:normal;font-weight:normal;font-stretch:normal;font-family:Laksaman;-inkscape-font-specification:Laksaman;fill:#1f65b7;fill-opacity:1;stroke-width:0.931944"
         id="path2574" />
      <path
         d="m 211.58567,342.15389 q 0.11184,3.61595 2.16211,5.81534 2.08756,2.19939 5.5544,2.19939 3.24317,0 6.67272,-1.342 l 0.18639,1.82661 q -3.31772,1.37928 -7.08278,1.37928 -4.28695,0 -7.00823,-2.64672 -2.72128,-2.68401 -2.72128,-6.8964 0,-4.51061 2.60945,-7.45556 2.64672,-2.98222 6.89639,-2.98222 8.01473,0 8.20112,10.10228 z M 224.81929,340.29 q -0.0745,-2.90767 -1.78933,-4.62245 -1.6775,-1.75205 -4.43606,-1.75205 -2.75856,0 -4.62245,1.82661 -1.86389,1.78933 -2.27394,4.54789 z"
         style="font-style:normal;font-variant:normal;font-weight:normal;font-stretch:normal;font-family:Laksaman;-inkscape-font-specification:Laksaman;fill:#1f65b7;fill-opacity:1;stroke-width:0.931944"
         id="path2576" />
      <path
         d="m 247.70781,340.70006 v 10.81056 h -2.23667 v -10.81056 q 0,-6.78456 -5.66622,-6.78456 -2.23667,0 -4.06328,1.90117 -1.82662,1.90116 -1.82662,4.13783 v 11.55612 h -2.23666 v -28.33113 h 2.23666 v 12.67445 q 2.31123,-3.80233 6.33723,-3.80233 7.45556,0 7.45556,8.64845 z"
         style="font-style:normal;font-variant:normal;font-weight:normal;font-stretch:normal;font-family:Laksaman;-inkscape-font-specification:Laksaman;fill:#1f65b7;fill-opacity:1;stroke-width:0.931944"
         id="path2578" />
      <path
         d="m 254.38049,342.15389 q 0.11183,3.61595 2.16211,5.81534 2.08756,2.19939 5.55439,2.19939 3.24317,0 6.67273,-1.342 l 0.18639,1.82661 q -3.31773,1.37928 -7.08279,1.37928 -4.28694,0 -7.00822,-2.64672 -2.72128,-2.68401 -2.72128,-6.8964 0,-4.51061 2.60944,-7.45556 2.64673,-2.98222 6.8964,-2.98222 8.01473,0 8.20111,10.10228 z M 267.61411,340.29 q -0.0746,-2.90767 -1.78934,-4.62245 -1.6775,-1.75205 -4.43606,-1.75205 -2.75855,0 -4.62244,1.82661 -1.86389,1.78933 -2.27395,4.54789 z"
         style="font-style:normal;font-variant:normal;font-weight:normal;font-stretch:normal;font-family:Laksaman;-inkscape-font-specification:Laksaman;fill:#1f65b7;fill-opacity:1;stroke-width:0.931944"
         id="path2580" />
      <path
         d="m 290.50261,351.51062 h -2.23667 v -10.81056 q 0,-6.78456 -5.66622,-6.78456 -2.23667,0 -4.06328,1.90117 -1.82662,1.90116 -1.82662,4.13783 v 11.55612 h -2.23666 v -14.35195 q 0,-1.6775 -0.37278,-4.69701 h 2.08755 q 0.37278,1.15562 0.44734,3.39228 2.16211,-3.80233 6.41178,-3.80233 7.45556,0 7.45556,8.64845 z"
         style="font-style:normal;font-variant:normal;font-weight:normal;font-stretch:normal;font-family:Laksaman;-inkscape-font-specification:Laksaman;fill:#1f65b7;fill-opacity:1;stroke-width:0.931944"
         id="path2582" />
      <path
         d="m 301.64862,333.9155 q -1.56566,0 -2.60944,0.89467 -1.04378,0.85738 -1.04378,2.27394 0,1.04378 1.08105,2.05028 1.11834,1.0065 3.13134,1.71478 5.10706,1.75206 5.10706,5.62895 0,2.60944 -1.97572,4.10056 -1.93845,1.45383 -4.92067,1.45383 -2.75856,0 -5.36801,-1.52839 l 0.82011,-1.78933 q 2.68401,1.45383 4.73428,1.45383 4.47334,0 4.47334,-3.54139 0,-1.30472 -1.08106,-2.3485 -1.04377,-1.08106 -3.13133,-1.71478 -5.10706,-1.56567 -5.10706,-5.18162 0,-2.42305 1.78933,-3.87689 1.82662,-1.45383 4.51062,-1.45383 2.94494,0 4.697,1.30472 l -0.89467,1.90117 q -1.6775,-1.342 -4.21239,-1.342 z"
         style="font-style:normal;font-variant:normal;font-weight:normal;font-stretch:normal;font-family:Laksaman;-inkscape-font-specification:Laksaman;fill:#1f65b7;fill-opacity:1;stroke-width:0.931944"
         id="path2584" />
      <path
         d="m 314.32307,351.51062 h -2.23666 v -19.04896 h 2.23666 z m -1.19289,-26.61635 q 0.78284,0 1.26745,0.52189 0.52189,0.48461 0.52189,1.26744 0,0.78284 -0.52189,1.26745 -0.48461,0.44733 -1.26745,0.44733 -0.78283,0 -1.26744,-0.44733 -0.44733,-0.48461 -0.44733,-1.26745 0,-0.78283 0.44733,-1.26744 0.48461,-0.52189 1.26744,-0.52189 z"
         style="font-style:normal;font-variant:normal;font-weight:normal;font-stretch:normal;font-family:Laksaman;-inkscape-font-specification:Laksaman;fill:#1f65b7;fill-opacity:1;stroke-width:0.931944"
         id="path2586" />
      <path
         d="m 336.16779,332.46166 -8.5739,19.04896 h -1.93844 l -8.2384,-19.04896 h 2.23667 l 7.0455,16.70046 7.2319,-16.70046 z"
         style="font-style:normal;font-variant:normal;font-weight:normal;font-stretch:normal;font-family:Laksaman;-inkscape-font-specification:Laksaman;fill:#1f65b7;fill-opacity:1;stroke-width:0.931944"
         id="path2588" />
      <path
         d="m 340.08193,342.15389 q 0.11184,3.61595 2.16212,5.81534 2.08755,2.19939 5.55439,2.19939 3.24317,0 6.67272,-1.342 l 0.18639,1.82661 q -3.31772,1.37928 -7.08278,1.37928 -4.28695,0 -7.00823,-2.64672 -2.72127,-2.68401 -2.72127,-6.8964 0,-4.51061 2.60944,-7.45556 2.64673,-2.98222 6.89639,-2.98222 8.01473,0 8.20112,10.10228 z M 353.31555,340.29 q -0.0745,-2.90767 -1.78933,-4.62245 -1.6775,-1.75205 -4.43606,-1.75205 -2.75856,0 -4.62245,1.82661 -1.86389,1.78933 -2.27394,4.54789 z"
         style="font-style:normal;font-variant:normal;font-weight:normal;font-stretch:normal;font-family:Laksaman;-inkscape-font-specification:Laksaman;fill:#1f65b7;fill-opacity:1;stroke-width:0.931944"
         id="path2590" />
      <path
         d="m 378.92532,324.37238 q 4.28694,0 7.00822,1.82661 2.75856,1.82662 2.75856,5.36801 0,5.14433 -5.14434,7.0455 2.68401,1.49111 3.87689,4.54789 1.23017,3.0195 2.01301,8.35023 h -2.23667 q -1.52839,-12.15256 -7.49284,-12.15256 h -5.10706 v 12.15256 h -2.23667 V 325.0061 q 3.24317,-0.63372 6.5609,-0.63372 z m 0.63372,13.12179 q 3.13133,0 4.99522,-1.41656 1.90117,-1.41656 1.90117,-4.21239 0,-5.62895 -7.53011,-5.62895 -3.09406,0 -4.32423,0.37278 v 10.88512 z"
         style="font-style:normal;font-variant:normal;font-weight:normal;font-stretch:normal;font-family:Laksaman;-inkscape-font-specification:Laksaman;fill:#1f65b7;fill-opacity:1;stroke-width:0.931944"
         id="path2592" />
    </g>
    <g
       aria-label="Archive"
       id="text2539"
       style="font-style:normal;font-weight:normal;font-size:37.2778px;line-height:1.25;font-family:sans-serif;fill:#1f65b7;fill-opacity:1;stroke:none;stroke-width:0.931944"
       transform="translate(0.75595468,4)">
      <path
         d="m 40.779139,389.51233 h -2.423058 l -3.094057,-8.5739 H 23.780461 l -3.019502,8.5739 h -2.423057 l 10.102284,-27.13824 h 2.236668 z m -6.188115,-10.43779 -5.032504,-14.24012 -5.107058,14.24012 z"
         style="font-style:normal;font-variant:normal;font-weight:normal;font-stretch:normal;font-family:Laksaman;-inkscape-font-specification:Laksaman;fill:#1f65b7;fill-opacity:1;stroke-width:0.931944"
         id="path2595" />
      <path
         d="m 52.409806,371.99176 q -0.223667,-0.0745 -0.671001,-0.0745 -2.460335,0 -4.175114,2.013 -1.677501,1.97572 -1.677501,5.33072 v 10.2514 h -2.236668 v -12.82356 q 0,-4.2124 -0.559167,-6.2254 h 1.901168 q 0.596445,1.19289 0.596445,3.80234 1.789334,-4.21239 5.740781,-4.21239 0.52189,0 1.081057,0.11183 z"
         style="font-style:normal;font-variant:normal;font-weight:normal;font-stretch:normal;font-family:Laksaman;-inkscape-font-specification:Laksaman;fill:#1f65b7;fill-opacity:1;stroke-width:0.931944"
         id="path2597" />
      <path
         d="m 64.375915,371.91721 q -3.541391,0 -5.628948,2.23666 -2.087557,2.23667 -2.087557,5.8899 0,3.61594 2.124835,5.88989 2.124834,2.23667 5.59167,2.23667 3.131335,0 5.218892,-1.342 l 0.782834,1.82661 q -2.460335,1.37928 -5.889893,1.37928 -4.622447,0 -7.343727,-2.684 -2.721279,-2.72128 -2.721279,-7.30645 0,-4.58517 2.721279,-7.26917 2.72128,-2.72128 7.343727,-2.72128 3.466836,0 5.889893,1.342 l -0.782834,1.86389 q -2.087557,-1.342 -5.218892,-1.342 z"
         style="font-style:normal;font-variant:normal;font-weight:normal;font-stretch:normal;font-family:Laksaman;-inkscape-font-specification:Laksaman;fill:#1f65b7;fill-opacity:1;stroke-width:0.931944"
         id="path2599" />
      <path
         d="m 90.358537,378.70177 v 10.81056 h -2.236669 v -10.81056 q 0,-6.78456 -5.666225,-6.78456 -2.236668,0 -4.063281,1.90116 -1.826612,1.90117 -1.826612,4.13784 v 11.55612 H 74.329082 V 361.1812 h 2.236668 v 12.67445 q 2.311224,-3.80233 6.337226,-3.80233 7.455561,0 7.455561,8.64845 z"
         style="font-style:normal;font-variant:normal;font-weight:normal;font-stretch:normal;font-family:Laksaman;-inkscape-font-specification:Laksaman;fill:#1f65b7;fill-opacity:1;stroke-width:0.931944"
         id="path2601" />
      <path
         d="m 98.373206,389.51233 h -2.236668 v -19.04896 h 2.236668 z m -1.192889,-26.61635 q 0.782834,0 1.267445,0.52189 0.521889,0.48461 0.521889,1.26744 0,0.78284 -0.521889,1.26745 -0.484611,0.44733 -1.267445,0.44733 -0.782834,0 -1.267445,-0.44733 -0.447334,-0.48461 -0.447334,-1.26745 0,-0.78283 0.447334,-1.26744 0.484611,-0.52189 1.267445,-0.52189 z"
         style="font-style:normal;font-variant:normal;font-weight:normal;font-stretch:normal;font-family:Laksaman;-inkscape-font-specification:Laksaman;fill:#1f65b7;fill-opacity:1;stroke-width:0.931944"
         id="path2603" />
      <path
         d="m 120.21793,370.46337 -8.57389,19.04896 h -1.93845 l -8.23839,-19.04896 h 2.23667 l 7.0455,16.70046 7.2319,-16.70046 z"
         style="font-style:normal;font-variant:normal;font-weight:normal;font-stretch:normal;font-family:Laksaman;-inkscape-font-specification:Laksaman;fill:#1f65b7;fill-opacity:1;stroke-width:0.931944"
         id="path2605" />
      <path
         d="m 124.13207,380.1556 q 0.11184,3.61595 2.16212,5.81534 2.08755,2.19939 5.55439,2.19939 3.24317,0 6.67273,-1.342 l 0.18638,1.82661 q -3.31772,1.37928 -7.08278,1.37928 -4.28695,0 -7.00822,-2.64673 -2.72128,-2.684 -2.72128,-6.89639 0,-4.51061 2.60944,-7.45556 2.64673,-2.98222 6.8964,-2.98222 8.01472,0 8.20111,10.10228 z m 13.23362,-1.86389 q -0.0745,-2.90767 -1.78933,-4.62245 -1.6775,-1.75205 -4.43606,-1.75205 -2.75856,0 -4.62245,1.82661 -1.86389,1.78933 -2.27394,4.54789 z"
         style="font-style:normal;font-variant:normal;font-weight:normal;font-stretch:normal;font-family:Laksaman;-inkscape-font-specification:Laksaman;fill:#1f65b7;fill-opacity:1;stroke-width:0.931944"
         id="path2607" />
    </g>
    <g
       aria-label="Network"
       id="text2543"
       style="font-style:normal;font-weight:normal;font-size:37.2778px;line-height:1.25;font-family:sans-serif;fill:#1f65b7;fill-opacity:1;stroke:none;stroke-width:0.931944"
       transform="translate(1.7775231,4)">
      <path
         d="m 177.61063,389.51232 h -2.31123 l -14.12828,-23.59685 v 23.59685 h -2.23667 v -26.69091 h 2.53489 l 13.90462,23.07496 v -23.07496 h 2.23667 z"
         style="font-style:normal;font-variant:normal;font-weight:normal;font-stretch:normal;font-family:Laksaman;-inkscape-font-specification:Laksaman;fill:#1f65b7;fill-opacity:1;stroke-width:0.931944"
         id="path2545" />
      <path
         d="m 184.39512,380.1556 q 0.11183,3.61595 2.16211,5.81534 2.08756,2.19939 5.55439,2.19939 3.24317,0 6.67273,-1.342 l 0.18639,1.82661 q -3.31772,1.37928 -7.08278,1.37928 -4.28695,0 -7.00823,-2.64673 -2.72128,-2.684 -2.72128,-6.89639 0,-4.51061 2.60945,-7.45556 2.64672,-2.98222 6.89639,-2.98222 8.01473,0 8.20112,10.10228 z m 13.23362,-1.86389 q -0.0746,-2.90767 -1.78933,-4.62245 -1.67751,-1.75205 -4.43606,-1.75205 -2.75856,0 -4.62245,1.82661 -1.86389,1.78933 -2.27395,4.54789 z"
         style="font-style:normal;font-variant:normal;font-weight:normal;font-stretch:normal;font-family:Laksaman;-inkscape-font-specification:Laksaman;fill:#1f65b7;fill-opacity:1;stroke-width:0.931944"
         id="path2547" />
      <path
         d="m 210.60135,390.03422 q -2.31122,0 -3.61594,-1.71478 -1.26745,-1.75206 -1.26745,-4.39878 v -11.77979 h -3.80234 v -1.6775 h 3.80234 v -5.66622 l 2.23667,-1.0065 v 6.67272 h 6.07628 v 1.6775 h -6.07628 v 11.77979 q 0,4.24967 2.83311,4.24967 1.75206,0 2.57217,-0.3355 l 0.22367,1.6775 q -1.15562,0.52189 -2.98223,0.52189 z"
         style="font-style:normal;font-variant:normal;font-weight:normal;font-stretch:normal;font-family:Laksaman;-inkscape-font-specification:Laksaman;fill:#1f65b7;fill-opacity:1;stroke-width:0.931944"
         id="path2549" />
      <path
         d="m 243.33121,370.46337 -6.85912,19.04896 h -1.90117 l -5.47983,-16.81229 -5.77806,16.81229 h -2.05028 l -6.18812,-19.04896 h 2.27395 l 5.06978,16.47679 5.7035,-16.47679 h 2.08756 l 5.368,16.47679 5.5544,-16.47679 z"
         style="font-style:normal;font-variant:normal;font-weight:normal;font-stretch:normal;font-family:Laksaman;-inkscape-font-specification:Laksaman;fill:#1f65b7;fill-opacity:1;stroke-width:0.931944"
         id="path2551" />
      <path
         d="m 264.05763,380.04377 q 0,4.24967 -2.72127,7.12006 -2.68401,2.87039 -6.8964,2.87039 -4.24967,0 -6.93367,-2.83311 -2.684,-2.8704 -2.684,-7.15734 0,-4.24967 2.72128,-7.12006 2.72128,-2.87039 6.89639,-2.87039 4.21239,0 6.8964,2.87039 2.72127,2.87039 2.72127,7.12006 z m -9.61767,8.12656 q 3.24317,0 5.29345,-2.3485 2.08756,-2.3485 2.08756,-5.77806 0,-3.42956 -2.05028,-5.77806 -2.05028,-2.3485 -5.33073,-2.3485 -3.24317,0 -5.33072,2.3485 -2.05028,2.3485 -2.05028,5.77806 0,3.42956 2.05028,5.77806 2.08755,2.3485 5.33072,2.3485 z"
         style="font-style:normal;font-variant:normal;font-weight:normal;font-stretch:normal;font-family:Laksaman;-inkscape-font-specification:Laksaman;fill:#1f65b7;fill-opacity:1;stroke-width:0.931944"
         id="path2553" />
      <path
         d="m 277.25396,371.99176 q -0.22367,-0.0745 -0.671,-0.0745 -2.46034,0 -4.17512,2.013 -1.6775,1.97572 -1.6775,5.33072 v 10.2514 h -2.23667 v -12.82356 q 0,-4.2124 -0.55916,-6.2254 h 1.90117 q 0.59644,1.19289 0.59644,3.80234 1.78933,-4.21239 5.74078,-4.21239 0.52189,0 1.08106,0.11183 z"
         style="font-style:normal;font-variant:normal;font-weight:normal;font-stretch:normal;font-family:Laksaman;-inkscape-font-specification:Laksaman;fill:#1f65b7;fill-opacity:1;stroke-width:0.931944"
         id="path2555" />
      <path
         d="m 296.11646,389.4005 -2.19939,0.63372 -9.05851,-10.43779 -1.97572,1.90117 v 8.01473 h -2.23667 V 361.1812 h 2.23667 v 17.85607 l 9.46856,-8.87212 2.23667,0.44733 -8.16384,7.75379 z"
         style="font-style:normal;font-variant:normal;font-weight:normal;font-stretch:normal;font-family:Laksaman;-inkscape-font-specification:Laksaman;fill:#1f65b7;fill-opacity:1;stroke-width:0.931944"
         id="path2557" />
    </g>
  </g>
</svg>
