<?xml version="1.0" encoding="UTF-8" standalone="no"?>
<svg
   preserveAspectRatio="xMidYMid"
   width="410"
   height="500"
   viewBox="0 0 410 500"
   version="1.1"
   xmlns:xlink="http://www.w3.org/1999/xlink"
   xmlns="http://www.w3.org/2000/svg">
  <defs>
    <linearGradient
       id="gradientFill-1"
       x1="0.7414425"
       x2="590.86261"
       y1="3.6658268"
       y2="593.78699"
       gradientUnits="userSpaceOnUse"
       spreadMethod="pad"
       gradientTransform="scale(1.2219423,0.81836924)">
      <stop
         offset="0"
         stop-color="rgb(203,206,208)"
         stop-opacity="1" />
      <stop
         offset="1"
         stop-color="rgb(132,131,139)"
         stop-opacity="1" />
    </linearGradient>
    <linearGradient
       id="gradientFill-2"
       x1="301.02603"
       x2="703.0675"
       y1="151.4006"
       y2="553.44208"
       gradientUnits="userSpaceOnUse"
       spreadMethod="pad"
       gradientTransform="scale(0.9899476,1.0101545)">
      <stop
         offset="0"
         stop-color="rgb(39,109,195)"
         stop-opacity="1" />
      <stop
         offset="1"
         stop-color="rgb(22,92,170)"
         stop-opacity="1" />
    </linearGradient>
    <linearGradient
       xlink:href="#gradientFill-2"
       id="rLogoGradient"
       gradientUnits="userSpaceOnUse"
       gradientTransform="matrix(0.67858217,0,0,0.69243339,-86.274812,-80.53208)"
       x1="301.02603"
       y1="151.4006"
       x2="703.0675"
       y2="553.44208"
       spreadMethod="pad" />
  </defs>
  <path
     d="m 290.73522,177.89121 c 0,0 14.95839,4.5138 23.64881,8.9111 3.01539,1.5259 8.23253,4.5707 11.99577,8.5684 3.68647,3.9154 5.48379,7.8829 5.48379,7.8829 l 58.95065,99.3936 -95.28071,0.043 -44.55573,-83.6702 c 0,0 -9.12364,-15.6761 -14.73767,-20.2214 -4.68315,-3.7914 -6.67993,-5.1411 -11.3103,-5.1411 -3.22309,0 -22.63842,0 -22.63842,0 l 0.0178,108.9724 -84.31315,0.036 V 24.30372 h 169.31178 c 0,0 77.11569,1.3908 77.11569,74.75899 0,73.3682 -73.68832,78.8294 -73.68832,78.8294 z m -36.67279,-93.20789 -51.04236,-0.033 -0.0254,47.33189 51.06773,-0.016 c 0,0 23.64881,-0.073 23.64881,-24.0773 0,-24.48639 -23.64881,-23.20529 -23.64881,-23.20529 z"
     fill="url(#rLogoGradient)"
     fill-rule="evenodd"
     style="stroke-width:0.685473" />
  <g
     aria-label="CRAN"
     transform="matrix(0,-1.0059564,1.0059564,0,-2.81582,-0.91747184)"
     style="font-style:normal;font-weight:bold;font-size:121.637px;line-height:1.25;font-family:monospace;fill:#95989d;fill-opacity:1;stroke:none;stroke-width:3.0409">
    <path
       d="m -246.60798,106.49507 q -4.15752,2.13815 -8.73079,3.20723 -4.57326,1.06907 -9.62167,1.06907 -17.93671,0 -27.38021,-11.819218 -9.44349,-11.819221 -9.44349,-34.151014 0,-22.391186 9.44349,-34.210406 9.4435,-11.819221 27.38021,-11.819221 5.04841,0 9.68107,1.069076 4.63266,1.069075 8.67139,3.207225 v 19.480926 q -4.51388,-4.157515 -8.79018,-6.058093 -4.21691,-1.959971 -8.73078,-1.959971 -9.62168,0 -14.5513,7.661706 -4.87023,7.602312 -4.87023,22.628758 0,14.967053 4.87023,22.628759 4.92962,7.602312 14.5513,7.602312 4.51387,0 8.73078,-1.900578 4.2763,-1.959971 8.79018,-6.117486 z" />
    <path
       d="m -189.65003,67.176861 q 2.61329,0.534538 4.51387,2.494509 1.95997,1.900578 4.75145,7.483526 l 16.03612,31.894074 h -19.24335 l -10.69075,-22.391183 q -0.47515,-0.950289 -1.24726,-2.613295 -4.69205,-10.037428 -11.04711,-10.037428 h -5.58295 v 35.041906 h -17.52095 V 20.375124 h 25.30145 q 17.1052,0 24.52933,6.058093 7.48353,6.058093 7.48353,19.718498 0,9.146533 -4.45448,14.551302 -4.45448,5.404769 -12.8289,6.473844 z m -22.50998,-32.072256 v 24.172978 h 8.25564 q 7.18656,0 10.275,-2.791474 3.14783,-2.850867 3.14783,-9.324712 0,-6.473844 -3.08844,-9.265318 -3.08844,-2.791474 -10.33439,-2.791474 z" />
    <path
       d="m -127.76246,36.411252 -8.25563,36.289164 h 16.57066 z m -10.69075,-16.036128 h 21.4409 l 23.935403,88.673846 h -17.520953 l -5.46416,-21.916039 h -23.46027 l -5.34537,21.916039 h -17.52096 z" />
    <path
       d="m -84.049168,20.375124 h 18.827602 L -40.51405,84.816602 V 20.375124 h 15.442197 V 109.04897 H -43.780669 L -68.606971,44.607495 v 64.441475 h -15.442197 z" />
  </g>
  <text
     x="205"
     y="465"
     text-anchor="middle"
     style="font-weight:bold;font-size:92px;font-family:'Helvetica Neue',Helvetica,Arial,sans-serif;fill:#276dc3">metafor</text>
</svg>
