<?xml version="1.0" encoding="UTF-8" standalone="no"?>
<svg
   preserveAspectRatio="xMidYMid"
   width="409.58569"
   height="499.586"
   viewBox="0 0 409.58569 499.58601"
   version="1.1"
   id="svg18"
   sodipodi:docname="cran-caret-logo.svg"
   inkscape:version="1.4.2 (2aeb623e1d, 2025-05-12)"
   xmlns:inkscape="http://www.inkscape.org/namespaces/inkscape"
   xmlns:sodipodi="http://sodipodi.sourceforge.net/DTD/sodipodi-0.dtd"
   xmlns:xlink="http://www.w3.org/1999/xlink"
   xmlns="http://www.w3.org/2000/svg"
   xmlns:svg="http://www.w3.org/2000/svg"
   xmlns:rdf="http://www.w3.org/1999/02/22-rdf-syntax-ns#"
   xmlns:cc="http://creativecommons.org/ns#"
   xmlns:dc="http://purl.org/dc/elements/1.1/">
  <sodipodi:namedview
     pagecolor="#ffffff"
     bordercolor="#666666"
     borderopacity="1"
     objecttolerance="10"
     gridtolerance="10"
     guidetolerance="10"
     inkscape:pageopacity="0"
     inkscape:pageshadow="2"
     inkscape:window-width="1920"
     inkscape:window-height="1011"
     id="namedview200"
     showgrid="false"
     lock-margins="true"
     fit-margin-top="0"
     fit-margin-left="0"
     fit-margin-right="0"
     fit-margin-bottom="0"
     inkscape:zoom="1"
     inkscape:cx="269"
     inkscape:cy="374.5"
     inkscape:window-x="0"
     inkscape:window-y="0"
     inkscape:window-maximized="1"
     inkscape:current-layer="svg18"
     inkscape:snap-bbox="true"
     inkscape:showpageshadow="2"
     inkscape:pagecheckerboard="0"
     inkscape:deskcolor="#d1d1d1" />
  <metadata
     id="metadata22">
    <rdf:RDF>
      <cc:Work
         rdf:about="">
        <dc:format>image/svg+xml</dc:format>
        <dc:type
           rdf:resource="http://purl.org/dc/dcmitype/StillImage" />
      </cc:Work>
    </rdf:RDF>
  </metadata>
  <defs
     id="defs12">
    <linearGradient
       id="gradientFill-1"
       x1="0.7414425"
       x2="590.86261"
       y1="3.6658268"
       y2="593.78699"
       gradientUnits="userSpaceOnUse"
       spreadMethod="pad"
       gradientTransform="scale(1.2219423,0.81836924)">
      <stop
         offset="0"
         stop-color="rgb(203,206,208)"
         stop-opacity="1"
         id="stop2" />
      <stop
         offset="1"
         stop-color="rgb(132,131,139)"
         stop-opacity="1"
         id="stop4" />
    </linearGradient>
    <linearGradient
       id="gradientFill-2"
       x1="301.02603"
       x2="703.0675"
       y1="151.4006"
       y2="553.44208"
       gradientUnits="userSpaceOnUse"
       spreadMethod="pad"
       gradientTransform="scale(0.9899476,1.0101545)">
      <stop
         offset="0"
         stop-color="rgb(39,109,195)"
         stop-opacity="1"
         id="stop7" />
      <stop
         offset="1"
         stop-color="rgb(22,92,170)"
         stop-opacity="1"
         id="stop9" />
    </linearGradient>
    <linearGradient
       xlink:href="#gradientFill-1"
       id="linearGradient885"
       gradientUnits="userSpaceOnUse"
       gradientTransform="scale(1.2219423,0.81836924)"
       x1="0.7414425"
       y1="3.6658268"
       x2="590.86261"
       y2="593.78699"
       spreadMethod="pad" />
    <linearGradient
       xlink:href="#gradientFill-2"
       id="linearGradient887"
       gradientUnits="userSpaceOnUse"
       gradientTransform="matrix(1.6841374,0,0,1.718514,-484.06269,-232.47933)"
       x1="301.02603"
       y1="151.4006"
       x2="703.0675"
       y2="553.44208"
       spreadMethod="pad" />
    <linearGradient
       xlink:href="#gradientFill-1"
       id="linearGradient1011"
       gradientUnits="userSpaceOnUse"
       gradientTransform="scale(1.2219423,0.81836924)"
       x1="0.7414425"
       y1="3.6658268"
       x2="590.86261"
       y2="593.78699"
       spreadMethod="pad" />
    <linearGradient
       xlink:href="#gradientFill-2"
       id="linearGradient1013"
       gradientUnits="userSpaceOnUse"
       gradientTransform="scale(0.9899476,1.0101545)"
       x1="301.02603"
       y1="151.4006"
       x2="703.0675"
       y2="553.44208"
       spreadMethod="pad" />
    <linearGradient
       xlink:href="#gradientFill-1"
       id="linearGradient1035"
       gradientUnits="userSpaceOnUse"
       gradientTransform="scale(1.2219423,0.81836924)"
       x1="0.7414425"
       y1="3.6658268"
       x2="590.86261"
       y2="593.78699"
       spreadMethod="pad" />
    <linearGradient
       xlink:href="#gradientFill-2"
       id="linearGradient1037"
       gradientUnits="userSpaceOnUse"
       gradientTransform="scale(0.9899476,1.0101545)"
       x1="301.02603"
       y1="151.4006"
       x2="703.0675"
       y2="553.44208"
       spreadMethod="pad" />
    <linearGradient
       xlink:href="#gradientFill-2"
       id="linearGradient1039"
       gradientUnits="userSpaceOnUse"
       gradientTransform="matrix(1.6841374,0,0,1.718514,-484.06269,-232.47933)"
       x1="301.02603"
       y1="151.4006"
       x2="703.0675"
       y2="553.44208"
       spreadMethod="pad" />
    <linearGradient
       xlink:href="#gradientFill-1"
       id="linearGradient1061"
       gradientUnits="userSpaceOnUse"
       gradientTransform="scale(1.2219423,0.81836924)"
       x1="0.7414425"
       y1="3.6658268"
       x2="590.86261"
       y2="593.78699"
       spreadMethod="pad" />
    <linearGradient
       xlink:href="#gradientFill-2"
       id="linearGradient1063"
       gradientUnits="userSpaceOnUse"
       gradientTransform="scale(0.9899476,1.0101545)"
       x1="301.02603"
       y1="151.4006"
       x2="703.0675"
       y2="553.44208"
       spreadMethod="pad" />
    <linearGradient
       xlink:href="#gradientFill-1"
       id="linearGradient1087"
       gradientUnits="userSpaceOnUse"
       gradientTransform="scale(1.2219423,0.81836924)"
       x1="0.7414425"
       y1="3.6658268"
       x2="590.86261"
       y2="593.78699"
       spreadMethod="pad" />
    <linearGradient
       xlink:href="#gradientFill-2"
       id="linearGradient1089"
       gradientUnits="userSpaceOnUse"
       gradientTransform="scale(0.9899476,1.0101545)"
       x1="301.02603"
       y1="151.4006"
       x2="703.0675"
       y2="553.44208"
       spreadMethod="pad" />
    <linearGradient
       xlink:href="#gradientFill-2"
       id="linearGradient1091"
       gradientUnits="userSpaceOnUse"
       gradientTransform="matrix(1.6841374,0,0,1.718514,-484.06269,-232.47933)"
       x1="301.02603"
       y1="151.4006"
       x2="703.0675"
       y2="553.44208"
       spreadMethod="pad" />
    <linearGradient
       xlink:href="#gradientFill-1-2"
       id="linearGradient1384"
       gradientUnits="userSpaceOnUse"
       gradientTransform="scale(1.2219423,0.81836924)"
       x1="0.7414425"
       y1="3.6658268"
       x2="590.86261"
       y2="593.78699"
       spreadMethod="pad" />
    <linearGradient
       id="gradientFill-1-2"
       x1="0.7414425"
       x2="590.86261"
       y1="3.6658268"
       y2="593.78699"
       gradientUnits="userSpaceOnUse"
       spreadMethod="pad"
       gradientTransform="scale(1.2219423,0.81836924)">
      <stop
         offset="0"
         stop-color="rgb(203,206,208)"
         stop-opacity="1"
         id="stop2-4" />
      <stop
         offset="1"
         stop-color="rgb(132,131,139)"
         stop-opacity="1"
         id="stop4-7" />
    </linearGradient>
    <linearGradient
       xlink:href="#gradientFill-2-9"
       id="linearGradient1386"
       gradientUnits="userSpaceOnUse"
       gradientTransform="scale(0.9899476,1.0101545)"
       x1="301.02603"
       y1="151.4006"
       x2="703.0675"
       y2="553.44208"
       spreadMethod="pad" />
    <linearGradient
       id="gradientFill-2-9"
       x1="301.02603"
       x2="703.0675"
       y1="151.4006"
       y2="553.44208"
       gradientUnits="userSpaceOnUse"
       spreadMethod="pad"
       gradientTransform="scale(0.9899476,1.0101545)">
      <stop
         offset="0"
         stop-color="rgb(39,109,195)"
         stop-opacity="1"
         id="stop7-3" />
      <stop
         offset="1"
         stop-color="rgb(22,92,170)"
         stop-opacity="1"
         id="stop9-9" />
    </linearGradient>
    <linearGradient
       xlink:href="#gradientFill-1-2"
       id="linearGradient1384-2"
       gradientUnits="userSpaceOnUse"
       gradientTransform="scale(1.2219423,0.81836924)"
       x1="0.7414425"
       y1="3.6658268"
       x2="590.86261"
       y2="593.78699"
       spreadMethod="pad" />
    <linearGradient
       xlink:href="#gradientFill-2-9"
       id="linearGradient1386-0"
       gradientUnits="userSpaceOnUse"
       gradientTransform="scale(0.9899476,1.0101545)"
       x1="301.02603"
       y1="151.4006"
       x2="703.0675"
       y2="553.44208"
       spreadMethod="pad" />
    <linearGradient
       xlink:href="#gradientFill-1-2"
       id="linearGradient1601"
       gradientUnits="userSpaceOnUse"
       gradientTransform="scale(1.2219423,0.81836924)"
       x1="0.7414425"
       y1="3.6658268"
       x2="590.86261"
       y2="593.78699"
       spreadMethod="pad" />
    <linearGradient
       xlink:href="#gradientFill-2-9"
       id="linearGradient1603"
       gradientUnits="userSpaceOnUse"
       gradientTransform="scale(0.9899476,1.0101545)"
       x1="301.02603"
       y1="151.4006"
       x2="703.0675"
       y2="553.44208"
       spreadMethod="pad" />
    <linearGradient
       xlink:href="#gradientFill-2"
       id="linearGradient1884"
       gradientUnits="userSpaceOnUse"
       gradientTransform="matrix(1.6841374,0,0,1.718514,-484.06269,-232.47933)"
       x1="301.02603"
       y1="151.4006"
       x2="703.0675"
       y2="553.44208"
       spreadMethod="pad" />
    <linearGradient
       xlink:href="#gradientFill-2"
       id="linearGradient1924"
       gradientUnits="userSpaceOnUse"
       gradientTransform="matrix(1.6841374,0,0,1.718514,-484.06269,-232.47933)"
       x1="301.02603"
       y1="151.4006"
       x2="703.0675"
       y2="553.44208"
       spreadMethod="pad" />
    <linearGradient
       xlink:href="#gradientFill-1-2"
       id="linearGradient2078"
       gradientUnits="userSpaceOnUse"
       gradientTransform="scale(1.2219423,0.81836924)"
       x1="0.7414425"
       y1="3.6658268"
       x2="590.86261"
       y2="593.78699"
       spreadMethod="pad" />
    <linearGradient
       xlink:href="#gradientFill-2-9"
       id="linearGradient2080"
       gradientUnits="userSpaceOnUse"
       gradientTransform="scale(0.9899476,1.0101545)"
       x1="301.02603"
       y1="151.4006"
       x2="703.0675"
       y2="553.44208"
       spreadMethod="pad" />
    <linearGradient
       xlink:href="#gradientFill-1-2"
       id="linearGradient2114"
       gradientUnits="userSpaceOnUse"
       gradientTransform="scale(1.2219423,0.81836924)"
       x1="0.7414425"
       y1="3.6658268"
       x2="590.86261"
       y2="593.78699"
       spreadMethod="pad" />
    <linearGradient
       xlink:href="#gradientFill-2-9"
       id="linearGradient2116"
       gradientUnits="userSpaceOnUse"
       gradientTransform="scale(0.9899476,1.0101545)"
       x1="301.02603"
       y1="151.4006"
       x2="703.0675"
       y2="553.44208"
       spreadMethod="pad" />
    <linearGradient
       xlink:href="#gradientFill-1-2"
       id="linearGradient2118"
       gradientUnits="userSpaceOnUse"
       gradientTransform="scale(1.2219423,0.81836924)"
       x1="0.7414425"
       y1="3.6658268"
       x2="590.86261"
       y2="593.78699"
       spreadMethod="pad" />
    <linearGradient
       xlink:href="#gradientFill-2-9"
       id="linearGradient2120"
       gradientUnits="userSpaceOnUse"
       gradientTransform="scale(0.9899476,1.0101545)"
       x1="301.02603"
       y1="151.4006"
       x2="703.0675"
       y2="553.44208"
       spreadMethod="pad" />
    <linearGradient
       xlink:href="#gradientFill-2"
       id="linearGradient2184"
       gradientUnits="userSpaceOnUse"
       gradientTransform="matrix(1.6841374,0,0,1.718514,-484.06269,-232.47933)"
       x1="301.02603"
       y1="151.4006"
       x2="703.0675"
       y2="553.44208"
       spreadMethod="pad" />
    <linearGradient
       xlink:href="#gradientFill-2"
       id="linearGradient2258"
       gradientUnits="userSpaceOnUse"
       gradientTransform="matrix(1.6841374,0,0,1.718514,-484.06269,-232.47933)"
       x1="301.02603"
       y1="151.4006"
       x2="703.0675"
       y2="553.44208"
       spreadMethod="pad" />
    <linearGradient
       xlink:href="#gradientFill-2"
       id="linearGradient2356"
       gradientUnits="userSpaceOnUse"
       gradientTransform="matrix(1.6841374,0,0,1.718514,-484.06269,-232.47933)"
       x1="301.02603"
       y1="151.4006"
       x2="703.0675"
       y2="553.44208"
       spreadMethod="pad" />
    <linearGradient
       xlink:href="#gradientFill-2"
       id="linearGradient2446"
       gradientUnits="userSpaceOnUse"
       gradientTransform="matrix(1.6841374,0,0,1.718514,-484.06269,-232.47933)"
       x1="301.02603"
       y1="151.4006"
       x2="703.0675"
       y2="553.44208"
       spreadMethod="pad" />
    <linearGradient
       inkscape:collect="always"
       xlink:href="#gradientFill-2"
       id="linearGradient1537"
       gradientUnits="userSpaceOnUse"
       gradientTransform="matrix(0.67858217,0,0,0.69243339,-86.274812,-80.53208)"
       x1="301.02603"
       y1="151.4006"
       x2="703.0675"
       y2="553.44208"
       spreadMethod="pad" />
  </defs>
  <g
     id="g893"
     transform="translate(273.27645,-2339.8323)">
    <g
       id="g851"
       transform="matrix(0.50305093,0,0,0.50305093,-734.8305,124.93988)" />
  </g>
  <g
     id="g2721">
    <path
       d="m 290.73522,177.89121 c 0,0 14.95839,4.5138 23.64881,8.9111 3.01539,1.5259 8.23253,4.5707 11.99577,8.5684 3.68647,3.9154 5.48379,7.8829 5.48379,7.8829 l 58.95065,99.3936 -95.28071,0.043 -44.55573,-83.6702 c 0,0 -9.12364,-15.6761 -14.73767,-20.2214 -4.68315,-3.7914 -6.67993,-5.1411 -11.3103,-5.1411 -3.22309,0 -22.63842,0 -22.63842,0 l 0.0178,108.9724 -84.31315,0.036 V 24.30372 h 169.31178 c 0,0 77.11569,1.3908 77.11569,74.75899 0,73.3682 -73.68832,78.8294 -73.68832,78.8294 z m -36.67279,-93.20789 -51.04236,-0.033 -0.0254,47.33189 51.06773,-0.016 c 0,0 23.64881,-0.073 23.64881,-24.0773 0,-24.48639 -23.64881,-23.20529 -23.64881,-23.20529 z"
       fill="url(#gradientFill-2)"
       fill-rule="evenodd"
       id="path1449"
       style="fill:url(#linearGradient1537);stroke-width:0.685473" />
    <g
       aria-label="CRAN"
       transform="matrix(0,-1.0059564,1.0059564,0,-2.81582,-0.91747184)"
       id="text1455"
       style="font-style:normal;font-weight:normal;font-size:121.637px;line-height:1.25;font-family:sans-serif;fill:#95989d;fill-opacity:1;stroke:none;stroke-width:3.0409">
      <path
         d="m -246.60798,106.49507 q -4.15752,2.13815 -8.73079,3.20723 -4.57326,1.06907 -9.62167,1.06907 -17.93671,0 -27.38021,-11.819218 -9.44349,-11.819221 -9.44349,-34.151014 0,-22.391186 9.44349,-34.210406 9.4435,-11.819221 27.38021,-11.819221 5.04841,0 9.68107,1.069076 4.63266,1.069075 8.67139,3.207225 v 19.480926 q -4.51388,-4.157515 -8.79018,-6.058093 -4.21691,-1.959971 -8.73078,-1.959971 -9.62168,0 -14.5513,7.661706 -4.87023,7.602312 -4.87023,22.628758 0,14.967053 4.87023,22.628759 4.92962,7.602312 14.5513,7.602312 4.51387,0 8.73078,-1.900578 4.2763,-1.959971 8.79018,-6.117486 z"
         style="font-style:normal;font-variant:normal;font-weight:bold;font-stretch:normal;font-family:monospace;-inkscape-font-specification:'monospace Bold';fill:#95989d;fill-opacity:1;stroke-width:3.0409"
         id="path2610" />
      <path
         d="m -189.65003,67.176861 q 2.61329,0.534538 4.51387,2.494509 1.95997,1.900578 4.75145,7.483526 l 16.03612,31.894074 h -19.24335 l -10.69075,-22.391183 q -0.47515,-0.950289 -1.24726,-2.613295 -4.69205,-10.037428 -11.04711,-10.037428 h -5.58295 v 35.041906 h -17.52095 V 20.375124 h 25.30145 q 17.1052,0 24.52933,6.058093 7.48353,6.058093 7.48353,19.718498 0,9.146533 -4.45448,14.551302 -4.45448,5.404769 -12.8289,6.473844 z m -22.50998,-32.072256 v 24.172978 h 8.25564 q 7.18656,0 10.275,-2.791474 3.14783,-2.850867 3.14783,-9.324712 0,-6.473844 -3.08844,-9.265318 -3.08844,-2.791474 -10.33439,-2.791474 z"
         style="font-style:normal;font-variant:normal;font-weight:bold;font-stretch:normal;font-family:monospace;-inkscape-font-specification:'monospace Bold';fill:#95989d;fill-opacity:1;stroke-width:3.0409"
         id="path2612" />
      <path
         d="m -127.76246,36.411252 -8.25563,36.289164 h 16.57066 z m -10.69075,-16.036128 h 21.4409 l 23.935403,88.673846 h -17.520953 l -5.46416,-21.916039 h -23.46027 l -5.34537,21.916039 h -17.52096 z"
         style="font-style:normal;font-variant:normal;font-weight:bold;font-stretch:normal;font-family:monospace;-inkscape-font-specification:'monospace Bold';fill:#95989d;fill-opacity:1;stroke-width:3.0409"
         id="path2614" />
      <path
         d="m -84.049168,20.375124 h 18.827602 L -40.51405,84.816602 V 20.375124 h 15.442197 V 109.04897 H -43.780669 L -68.606971,44.607495 v 64.441475 h -15.442197 z"
         style="font-style:normal;font-variant:normal;font-weight:bold;font-stretch:normal;font-family:monospace;-inkscape-font-specification:'monospace Bold';fill:#95989d;fill-opacity:1;stroke-width:3.0409"
         id="path2616" />
    </g>
  </g>
  <g
     id="g2645"
     transform="translate(0.75595468)" />
  <path
     style="font-weight:bold;font-size:136.48px;fill:#276dc3;stroke-width:1.70941"
     d="m 77.490909,375.80009 v 19.45906 q -4.864766,-3.33203 -9.796172,-4.93141 -4.864765,-1.59937 -10.129374,-1.59937 -9.996094,0 -15.593906,5.86437 -5.531172,5.79774 -5.531172,16.26032 0,10.46257 5.531172,16.32695 5.597812,5.79773 15.593906,5.79773 5.597812,0 10.595859,-1.66601 5.064687,-1.66602 9.329687,-4.93141 v 19.5257 q -5.597813,2.06586 -11.395547,3.06547 -5.731093,1.06625 -11.528828,1.06625 -20.192108,0 -31.587655,-10.32929 -11.395546,-10.39594 -11.395546,-28.85539 0,-18.45946 11.395546,-28.78875 11.395547,-10.39594 31.587655,-10.39594 5.864375,0 11.528828,1.06625 5.731094,0.99961 11.395547,3.06547 z m 54.045551,38.7182 q -7.46375,0 -11.26227,2.53234 -3.73187,2.53235 -3.73187,7.46375 0,4.53157 2.99882,7.13055 3.06547,2.53234 8.46336,2.53234 6.73071,0 11.32891,-4.79812 4.5982,-4.86477 4.5982,-12.12859 v -2.73227 z m 36.45242,-8.99648 v 42.58335 h -24.05727 v -11.06234 q -4.79812,6.79734 -10.79578,9.92945 -5.99766,3.06547 -14.5943,3.06547 -11.59546,0 -18.859292,-6.7307 -7.197187,-6.79734 -7.197187,-17.59313 0,-13.1282 8.996479,-19.25914 9.06313,-6.13093 28.38891,-6.13093 h 14.06117 v -1.86594 q 0,-5.66445 -4.46492,-8.26344 -4.46492,-2.66562 -13.92789,-2.66562 -7.66367,0 -14.26109,1.53273 -6.59743,1.53274 -12.261878,4.5982 v -18.19289 q 7.663668,-1.86593 15.393988,-2.7989 7.73031,-0.99961 15.46062,-0.99961 20.19211,0 29.12195,7.99687 8.99649,7.93024 8.99649,25.85657 z m 77.63632,-11.72875 q -3.13211,-1.4661 -6.26422,-2.1325 -3.06547,-0.73305 -6.19758,-0.73305 -9.19641,0 -14.19445,5.93101 -4.93141,5.86438 -4.93141,16.86008 v 34.38656 H 190.1802 v -74.63749 h 23.85734 v 12.26187 q 4.5982,-7.33047 10.52922,-10.6625 5.99766,-3.39867 14.32773,-3.39867 1.19954,0 2.59899,0.13328 1.39945,0.0666 4.06508,0.39984 z m 86.36625,16.79343 v 6.79735 h -55.7782 q 0.86633,8.39671 6.0643,12.59507 5.19797,4.19836 14.52765,4.19836 7.53039,0 15.39399,-2.19914 7.93023,-2.26578 16.26031,-6.79734 v 18.39281 q -8.46336,3.19875 -16.92672,4.79813 -8.46336,1.66601 -16.92672,1.66601 -20.25875,0 -31.52101,-10.26265 -11.19563,-10.3293 -11.19563,-28.92203 0,-18.25954 10.99571,-28.72211 11.06234,-10.46258 30.38812,-10.46258 17.59313,0 28.12234,10.59586 10.59586,10.59586 10.59586,28.32226 z m -24.52375,-7.93023 q 0,-6.79734 -3.99843,-10.92906 -3.9318,-4.19836 -10.3293,-4.19836 -6.93063,0 -11.26227,3.93179 -4.33164,3.86516 -5.39789,11.19563 z m 68.63986,-50.38031 v 21.19172 h 24.59039 v 17.06 h -24.59039 v 31.65429 q 0,5.19797 2.06586,7.06391 2.06586,1.79929 8.1968,1.79929 h 12.26187 v 17.06 h -20.45867 q -14.12781,0 -20.05883,-5.86437 -5.86437,-5.93102 -5.86437,-20.05883 v -31.65429 h -11.86203 v -17.06 h 11.86203 v -21.19172 z"
     id="text1"
     aria-label="caret" />
</svg>
