<?xml version="1.0" encoding="UTF-8" standalone="no"?>
<svg
   preserveAspectRatio="xMidYMid"
   width="409.58569"
   height="499.586"
   viewBox="0 0 409.58569 499.58601"
   version="1.1"
   id="svg18"
   sodipodi:docname="cran-plyr-logo.svg"
   inkscape:version="1.4.2 (2aeb623e1d, 2025-05-12)"
   xmlns:inkscape="http://www.inkscape.org/namespaces/inkscape"
   xmlns:sodipodi="http://sodipodi.sourceforge.net/DTD/sodipodi-0.dtd"
   xmlns:xlink="http://www.w3.org/1999/xlink"
   xmlns="http://www.w3.org/2000/svg"
   xmlns:svg="http://www.w3.org/2000/svg"
   xmlns:rdf="http://www.w3.org/1999/02/22-rdf-syntax-ns#"
   xmlns:cc="http://creativecommons.org/ns#"
   xmlns:dc="http://purl.org/dc/elements/1.1/">
  <sodipodi:namedview
     pagecolor="#ffffff"
     bordercolor="#666666"
     borderopacity="1"
     objecttolerance="10"
     gridtolerance="10"
     guidetolerance="10"
     inkscape:pageopacity="0"
     inkscape:pageshadow="2"
     inkscape:window-width="2560"
     inkscape:window-height="1403"
     id="namedview200"
     showgrid="false"
     lock-margins="true"
     fit-margin-top="0"
     fit-margin-left="0"
     fit-margin-right="0"
     fit-margin-bottom="0"
     inkscape:zoom="1"
     inkscape:cx="269"
     inkscape:cy="-39.5"
     inkscape:window-x="0"
     inkscape:window-y="0"
     inkscape:window-maximized="1"
     inkscape:current-layer="svg18"
     inkscape:snap-bbox="true"
     inkscape:showpageshadow="2"
     inkscape:pagecheckerboard="0"
     inkscape:deskcolor="#d1d1d1" />
  <metadata
     id="metadata22">
    <rdf:RDF>
      <cc:Work
         rdf:about="">
        <dc:format>image/svg+xml</dc:format>
        <dc:type
           rdf:resource="http://purl.org/dc/dcmitype/StillImage" />
      </cc:Work>
    </rdf:RDF>
  </metadata>
  <defs
     id="defs12">
    <linearGradient
       id="gradientFill-1"
       x1="0.7414425"
       x2="590.86261"
       y1="3.6658268"
       y2="593.78699"
       gradientUnits="userSpaceOnUse"
       spreadMethod="pad"
       gradientTransform="scale(1.2219423,0.81836924)">
      <stop
         offset="0"
         stop-color="rgb(203,206,208)"
         stop-opacity="1"
         id="stop2" />
      <stop
         offset="1"
         stop-color="rgb(132,131,139)"
         stop-opacity="1"
         id="stop4" />
    </linearGradient>
    <linearGradient
       id="gradientFill-2"
       x1="301.02603"
       x2="703.0675"
       y1="151.4006"
       y2="553.44208"
       gradientUnits="userSpaceOnUse"
       spreadMethod="pad"
       gradientTransform="scale(0.9899476,1.0101545)">
      <stop
         offset="0"
         stop-color="rgb(39,109,195)"
         stop-opacity="1"
         id="stop7" />
      <stop
         offset="1"
         stop-color="rgb(22,92,170)"
         stop-opacity="1"
         id="stop9" />
    </linearGradient>
    <linearGradient
       xlink:href="#gradientFill-1"
       id="linearGradient885"
       gradientUnits="userSpaceOnUse"
       gradientTransform="scale(1.2219423,0.81836924)"
       x1="0.7414425"
       y1="3.6658268"
       x2="590.86261"
       y2="593.78699"
       spreadMethod="pad" />
    <linearGradient
       xlink:href="#gradientFill-2"
       id="linearGradient887"
       gradientUnits="userSpaceOnUse"
       gradientTransform="matrix(1.6841374,0,0,1.718514,-484.06269,-232.47933)"
       x1="301.02603"
       y1="151.4006"
       x2="703.0675"
       y2="553.44208"
       spreadMethod="pad" />
    <linearGradient
       xlink:href="#gradientFill-1"
       id="linearGradient1011"
       gradientUnits="userSpaceOnUse"
       gradientTransform="scale(1.2219423,0.81836924)"
       x1="0.7414425"
       y1="3.6658268"
       x2="590.86261"
       y2="593.78699"
       spreadMethod="pad" />
    <linearGradient
       xlink:href="#gradientFill-2"
       id="linearGradient1013"
       gradientUnits="userSpaceOnUse"
       gradientTransform="scale(0.9899476,1.0101545)"
       x1="301.02603"
       y1="151.4006"
       x2="703.0675"
       y2="553.44208"
       spreadMethod="pad" />
    <linearGradient
       xlink:href="#gradientFill-1"
       id="linearGradient1035"
       gradientUnits="userSpaceOnUse"
       gradientTransform="scale(1.2219423,0.81836924)"
       x1="0.7414425"
       y1="3.6658268"
       x2="590.86261"
       y2="593.78699"
       spreadMethod="pad" />
    <linearGradient
       xlink:href="#gradientFill-2"
       id="linearGradient1037"
       gradientUnits="userSpaceOnUse"
       gradientTransform="scale(0.9899476,1.0101545)"
       x1="301.02603"
       y1="151.4006"
       x2="703.0675"
       y2="553.44208"
       spreadMethod="pad" />
    <linearGradient
       xlink:href="#gradientFill-2"
       id="linearGradient1039"
       gradientUnits="userSpaceOnUse"
       gradientTransform="matrix(1.6841374,0,0,1.718514,-484.06269,-232.47933)"
       x1="301.02603"
       y1="151.4006"
       x2="703.0675"
       y2="553.44208"
       spreadMethod="pad" />
    <linearGradient
       xlink:href="#gradientFill-1"
       id="linearGradient1061"
       gradientUnits="userSpaceOnUse"
       gradientTransform="scale(1.2219423,0.81836924)"
       x1="0.7414425"
       y1="3.6658268"
       x2="590.86261"
       y2="593.78699"
       spreadMethod="pad" />
    <linearGradient
       xlink:href="#gradientFill-2"
       id="linearGradient1063"
       gradientUnits="userSpaceOnUse"
       gradientTransform="scale(0.9899476,1.0101545)"
       x1="301.02603"
       y1="151.4006"
       x2="703.0675"
       y2="553.44208"
       spreadMethod="pad" />
    <linearGradient
       xlink:href="#gradientFill-1"
       id="linearGradient1087"
       gradientUnits="userSpaceOnUse"
       gradientTransform="scale(1.2219423,0.81836924)"
       x1="0.7414425"
       y1="3.6658268"
       x2="590.86261"
       y2="593.78699"
       spreadMethod="pad" />
    <linearGradient
       xlink:href="#gradientFill-2"
       id="linearGradient1089"
       gradientUnits="userSpaceOnUse"
       gradientTransform="scale(0.9899476,1.0101545)"
       x1="301.02603"
       y1="151.4006"
       x2="703.0675"
       y2="553.44208"
       spreadMethod="pad" />
    <linearGradient
       xlink:href="#gradientFill-2"
       id="linearGradient1091"
       gradientUnits="userSpaceOnUse"
       gradientTransform="matrix(1.6841374,0,0,1.718514,-484.06269,-232.47933)"
       x1="301.02603"
       y1="151.4006"
       x2="703.0675"
       y2="553.44208"
       spreadMethod="pad" />
    <linearGradient
       xlink:href="#gradientFill-1-2"
       id="linearGradient1384"
       gradientUnits="userSpaceOnUse"
       gradientTransform="scale(1.2219423,0.81836924)"
       x1="0.7414425"
       y1="3.6658268"
       x2="590.86261"
       y2="593.78699"
       spreadMethod="pad" />
    <linearGradient
       id="gradientFill-1-2"
       x1="0.7414425"
       x2="590.86261"
       y1="3.6658268"
       y2="593.78699"
       gradientUnits="userSpaceOnUse"
       spreadMethod="pad"
       gradientTransform="scale(1.2219423,0.81836924)">
      <stop
         offset="0"
         stop-color="rgb(203,206,208)"
         stop-opacity="1"
         id="stop2-4" />
      <stop
         offset="1"
         stop-color="rgb(132,131,139)"
         stop-opacity="1"
         id="stop4-7" />
    </linearGradient>
    <linearGradient
       xlink:href="#gradientFill-2-9"
       id="linearGradient1386"
       gradientUnits="userSpaceOnUse"
       gradientTransform="scale(0.9899476,1.0101545)"
       x1="301.02603"
       y1="151.4006"
       x2="703.0675"
       y2="553.44208"
       spreadMethod="pad" />
    <linearGradient
       id="gradientFill-2-9"
       x1="301.02603"
       x2="703.0675"
       y1="151.4006"
       y2="553.44208"
       gradientUnits="userSpaceOnUse"
       spreadMethod="pad"
       gradientTransform="scale(0.9899476,1.0101545)">
      <stop
         offset="0"
         stop-color="rgb(39,109,195)"
         stop-opacity="1"
         id="stop7-3" />
      <stop
         offset="1"
         stop-color="rgb(22,92,170)"
         stop-opacity="1"
         id="stop9-9" />
    </linearGradient>
    <linearGradient
       xlink:href="#gradientFill-1-2"
       id="linearGradient1384-2"
       gradientUnits="userSpaceOnUse"
       gradientTransform="scale(1.2219423,0.81836924)"
       x1="0.7414425"
       y1="3.6658268"
       x2="590.86261"
       y2="593.78699"
       spreadMethod="pad" />
    <linearGradient
       xlink:href="#gradientFill-2-9"
       id="linearGradient1386-0"
       gradientUnits="userSpaceOnUse"
       gradientTransform="scale(0.9899476,1.0101545)"
       x1="301.02603"
       y1="151.4006"
       x2="703.0675"
       y2="553.44208"
       spreadMethod="pad" />
    <linearGradient
       xlink:href="#gradientFill-1-2"
       id="linearGradient1601"
       gradientUnits="userSpaceOnUse"
       gradientTransform="scale(1.2219423,0.81836924)"
       x1="0.7414425"
       y1="3.6658268"
       x2="590.86261"
       y2="593.78699"
       spreadMethod="pad" />
    <linearGradient
       xlink:href="#gradientFill-2-9"
       id="linearGradient1603"
       gradientUnits="userSpaceOnUse"
       gradientTransform="scale(0.9899476,1.0101545)"
       x1="301.02603"
       y1="151.4006"
       x2="703.0675"
       y2="553.44208"
       spreadMethod="pad" />
    <linearGradient
       xlink:href="#gradientFill-2"
       id="linearGradient1884"
       gradientUnits="userSpaceOnUse"
       gradientTransform="matrix(1.6841374,0,0,1.718514,-484.06269,-232.47933)"
       x1="301.02603"
       y1="151.4006"
       x2="703.0675"
       y2="553.44208"
       spreadMethod="pad" />
    <linearGradient
       xlink:href="#gradientFill-2"
       id="linearGradient1924"
       gradientUnits="userSpaceOnUse"
       gradientTransform="matrix(1.6841374,0,0,1.718514,-484.06269,-232.47933)"
       x1="301.02603"
       y1="151.4006"
       x2="703.0675"
       y2="553.44208"
       spreadMethod="pad" />
    <linearGradient
       xlink:href="#gradientFill-1-2"
       id="linearGradient2078"
       gradientUnits="userSpaceOnUse"
       gradientTransform="scale(1.2219423,0.81836924)"
       x1="0.7414425"
       y1="3.6658268"
       x2="590.86261"
       y2="593.78699"
       spreadMethod="pad" />
    <linearGradient
       xlink:href="#gradientFill-2-9"
       id="linearGradient2080"
       gradientUnits="userSpaceOnUse"
       gradientTransform="scale(0.9899476,1.0101545)"
       x1="301.02603"
       y1="151.4006"
       x2="703.0675"
       y2="553.44208"
       spreadMethod="pad" />
    <linearGradient
       xlink:href="#gradientFill-1-2"
       id="linearGradient2114"
       gradientUnits="userSpaceOnUse"
       gradientTransform="scale(1.2219423,0.81836924)"
       x1="0.7414425"
       y1="3.6658268"
       x2="590.86261"
       y2="593.78699"
       spreadMethod="pad" />
    <linearGradient
       xlink:href="#gradientFill-2-9"
       id="linearGradient2116"
       gradientUnits="userSpaceOnUse"
       gradientTransform="scale(0.9899476,1.0101545)"
       x1="301.02603"
       y1="151.4006"
       x2="703.0675"
       y2="553.44208"
       spreadMethod="pad" />
    <linearGradient
       xlink:href="#gradientFill-1-2"
       id="linearGradient2118"
       gradientUnits="userSpaceOnUse"
       gradientTransform="scale(1.2219423,0.81836924)"
       x1="0.7414425"
       y1="3.6658268"
       x2="590.86261"
       y2="593.78699"
       spreadMethod="pad" />
    <linearGradient
       xlink:href="#gradientFill-2-9"
       id="linearGradient2120"
       gradientUnits="userSpaceOnUse"
       gradientTransform="scale(0.9899476,1.0101545)"
       x1="301.02603"
       y1="151.4006"
       x2="703.0675"
       y2="553.44208"
       spreadMethod="pad" />
    <linearGradient
       xlink:href="#gradientFill-2"
       id="linearGradient2184"
       gradientUnits="userSpaceOnUse"
       gradientTransform="matrix(1.6841374,0,0,1.718514,-484.06269,-232.47933)"
       x1="301.02603"
       y1="151.4006"
       x2="703.0675"
       y2="553.44208"
       spreadMethod="pad" />
    <linearGradient
       xlink:href="#gradientFill-2"
       id="linearGradient2258"
       gradientUnits="userSpaceOnUse"
       gradientTransform="matrix(1.6841374,0,0,1.718514,-484.06269,-232.47933)"
       x1="301.02603"
       y1="151.4006"
       x2="703.0675"
       y2="553.44208"
       spreadMethod="pad" />
    <linearGradient
       xlink:href="#gradientFill-2"
       id="linearGradient2356"
       gradientUnits="userSpaceOnUse"
       gradientTransform="matrix(1.6841374,0,0,1.718514,-484.06269,-232.47933)"
       x1="301.02603"
       y1="151.4006"
       x2="703.0675"
       y2="553.44208"
       spreadMethod="pad" />
    <linearGradient
       xlink:href="#gradientFill-2"
       id="linearGradient2446"
       gradientUnits="userSpaceOnUse"
       gradientTransform="matrix(1.6841374,0,0,1.718514,-484.06269,-232.47933)"
       x1="301.02603"
       y1="151.4006"
       x2="703.0675"
       y2="553.44208"
       spreadMethod="pad" />
    <linearGradient
       inkscape:collect="always"
       xlink:href="#gradientFill-2"
       id="linearGradient1537"
       gradientUnits="userSpaceOnUse"
       gradientTransform="matrix(0.67858217,0,0,0.69243339,-86.274812,-80.53208)"
       x1="301.02603"
       y1="151.4006"
       x2="703.0675"
       y2="553.44208"
       spreadMethod="pad" />
  </defs>
  <g
     id="g893"
     transform="translate(273.27645,-2339.8323)">
    <g
       id="g851"
       transform="matrix(0.50305093,0,0,0.50305093,-734.8305,124.93988)" />
  </g>
  <g
     id="g2721">
    <path
       d="m 290.73522,177.89121 c 0,0 14.95839,4.5138 23.64881,8.9111 3.01539,1.5259 8.23253,4.5707 11.99577,8.5684 3.68647,3.9154 5.48379,7.8829 5.48379,7.8829 l 58.95065,99.3936 -95.28071,0.043 -44.55573,-83.6702 c 0,0 -9.12364,-15.6761 -14.73767,-20.2214 -4.68315,-3.7914 -6.67993,-5.1411 -11.3103,-5.1411 -3.22309,0 -22.63842,0 -22.63842,0 l 0.0178,108.9724 -84.31315,0.036 V 24.30372 h 169.31178 c 0,0 77.11569,1.3908 77.11569,74.75899 0,73.3682 -73.68832,78.8294 -73.68832,78.8294 z m -36.67279,-93.20789 -51.04236,-0.033 -0.0254,47.33189 51.06773,-0.016 c 0,0 23.64881,-0.073 23.64881,-24.0773 0,-24.48639 -23.64881,-23.20529 -23.64881,-23.20529 z"
       fill="url(#gradientFill-2)"
       fill-rule="evenodd"
       id="path1449"
       style="fill:url(#linearGradient1537);stroke-width:0.685473" />
    <g
       aria-label="CRAN"
       transform="matrix(0,-1.0059564,1.0059564,0,-2.81582,-0.91747184)"
       id="text1455"
       style="font-style:normal;font-weight:normal;font-size:121.637px;line-height:1.25;font-family:sans-serif;fill:#95989d;fill-opacity:1;stroke:none;stroke-width:3.0409">
      <path
         d="m -246.60798,106.49507 q -4.15752,2.13815 -8.73079,3.20723 -4.57326,1.06907 -9.62167,1.06907 -17.93671,0 -27.38021,-11.819218 -9.44349,-11.819221 -9.44349,-34.151014 0,-22.391186 9.44349,-34.210406 9.4435,-11.819221 27.38021,-11.819221 5.04841,0 9.68107,1.069076 4.63266,1.069075 8.67139,3.207225 v 19.480926 q -4.51388,-4.157515 -8.79018,-6.058093 -4.21691,-1.959971 -8.73078,-1.959971 -9.62168,0 -14.5513,7.661706 -4.87023,7.602312 -4.87023,22.628758 0,14.967053 4.87023,22.628759 4.92962,7.602312 14.5513,7.602312 4.51387,0 8.73078,-1.900578 4.2763,-1.959971 8.79018,-6.117486 z"
         style="font-style:normal;font-variant:normal;font-weight:bold;font-stretch:normal;font-family:monospace;-inkscape-font-specification:'monospace Bold';fill:#95989d;fill-opacity:1;stroke-width:3.0409"
         id="path2610" />
      <path
         d="m -189.65003,67.176861 q 2.61329,0.534538 4.51387,2.494509 1.95997,1.900578 4.75145,7.483526 l 16.03612,31.894074 h -19.24335 l -10.69075,-22.391183 q -0.47515,-0.950289 -1.24726,-2.613295 -4.69205,-10.037428 -11.04711,-10.037428 h -5.58295 v 35.041906 h -17.52095 V 20.375124 h 25.30145 q 17.1052,0 24.52933,6.058093 7.48353,6.058093 7.48353,19.718498 0,9.146533 -4.45448,14.551302 -4.45448,5.404769 -12.8289,6.473844 z m -22.50998,-32.072256 v 24.172978 h 8.25564 q 7.18656,0 10.275,-2.791474 3.14783,-2.850867 3.14783,-9.324712 0,-6.473844 -3.08844,-9.265318 -3.08844,-2.791474 -10.33439,-2.791474 z"
         style="font-style:normal;font-variant:normal;font-weight:bold;font-stretch:normal;font-family:monospace;-inkscape-font-specification:'monospace Bold';fill:#95989d;fill-opacity:1;stroke-width:3.0409"
         id="path2612" />
      <path
         d="m -127.76246,36.411252 -8.25563,36.289164 h 16.57066 z m -10.69075,-16.036128 h 21.4409 l 23.935403,88.673846 h -17.520953 l -5.46416,-21.916039 h -23.46027 l -5.34537,21.916039 h -17.52096 z"
         style="font-style:normal;font-variant:normal;font-weight:bold;font-stretch:normal;font-family:monospace;-inkscape-font-specification:'monospace Bold';fill:#95989d;fill-opacity:1;stroke-width:3.0409"
         id="path2614" />
      <path
         d="m -84.049168,20.375124 h 18.827602 L -40.51405,84.816602 V 20.375124 h 15.442197 V 109.04897 H -43.780669 L -68.606971,44.607495 v 64.441475 h -15.442197 z"
         style="font-style:normal;font-variant:normal;font-weight:bold;font-stretch:normal;font-family:monospace;-inkscape-font-specification:'monospace Bold';fill:#95989d;fill-opacity:1;stroke-width:3.0409"
         id="path2616" />
    </g>
  </g>
  <g
     id="g2645"
     transform="translate(0.75595468)" />
  <g
     id="g2709"
     transform="matrix(1.9206805,0,0,1.9206805,-58.979922,-291.04112)">
    <g
       aria-label="Network"
       id="text2543"
       style="font-style:normal;font-weight:normal;font-size:37.2778px;line-height:1.25;font-family:sans-serif;fill:#1f65b7;fill-opacity:1;stroke:none;stroke-width:0.931944"
       transform="translate(1.7775231,4)" />
    <text
       xml:space="preserve"
       style="font-size:66.3555px;text-align:start;writing-mode:lr-tb;direction:ltr;text-anchor:start;fill:#000000;stroke-width:0.995332"
       x="28.371855"
       y="369.11688"
       id="text1"><tspan
         sodipodi:role="line"
         id="tspan1"
         style="font-size:66.3555px;stroke-width:0.995332"
         x="28.371855"
         y="369.11688" /></text>
    <path
       style="font-weight:bold;font-size:91.8615px;fill:#276dc3;stroke-width:1.8409"
       d="m 56.969823,378.2431 v 26.3743 H 40.912002 v -69.34467 h 16.057821 v 7.3561 q 3.319215,-4.39572 7.356097,-6.45901 4.036883,-2.10815 9.28483,-2.10815 9.28483,0 15.250445,7.40095 5.965615,7.35609 5.965615,18.97335 0,11.61725 -5.965615,19.0182 -5.965615,7.35609 -15.250445,7.35609 -5.247947,0 -9.28483,-2.06329 -4.036882,-2.10815 -7.356097,-6.50387 z m 10.675312,-32.51933 q -5.158239,0 -7.939202,3.81261 -2.73611,3.76776 -2.73611,10.89959 0,7.13182 2.73611,10.94443 2.780963,3.76776 7.939202,3.76776 5.158239,0 7.849494,-3.76776 2.736109,-3.76775 2.736109,-10.94443 0,-7.17668 -2.736109,-10.94444 -2.691255,-3.76776 -7.849494,-3.76776 z m 39.023195,-30.00749 h 16.05783 v 69.79321 h -16.05783 z m 24.89412,19.55645 h 16.05782 l 13.50113,34.08923 11.48268,-34.08923 h 16.05783 l -21.12636,54.99131 q -3.18465,8.38775 -7.4458,11.70696 -4.2163,3.36407 -11.16871,3.36407 h -9.28483 v -10.54075 h 5.02368 q 4.08173,0 5.92076,-1.30077 1.88388,-1.30078 2.91552,-4.66484 l 0.44855,-1.39049 z m 103.79272,13.68055 q -2.10815,-0.9868 -4.2163,-1.43534 -2.06329,-0.4934 -4.17144,-0.4934 -6.18989,0 -9.55396,3.99203 -3.31921,3.94718 -3.31921,11.34813 v 23.14479 h -16.05782 v -50.23676 h 16.05782 v 8.25318 q 3.09494,-4.93396 7.08697,-7.17668 4.03688,-2.28756 9.64366,-2.28756 0.80738,0 1.74932,0.0897 0.94194,0.0449 2.73611,0.26913 z"
       id="text2"
       aria-label="plyr" />
  </g>
</svg>
