<?xml version="1.0" encoding="UTF-8" standalone="no"?>
<svg
   preserveAspectRatio="xMidYMid"
   width="409.58569"
   height="409.58569"
   viewBox="0 0 409.58569 409.5857"
   version="1.1"
   id="svg18"
   sodipodi:docname="cran-strucchange-logo.svg"
   inkscape:version="1.4.3 (fcd0343856, 2026-01-01)"
   xmlns:inkscape="http://www.inkscape.org/namespaces/inkscape"
   xmlns:sodipodi="http://sodipodi.sourceforge.net/DTD/sodipodi-0.dtd"
   xmlns:xlink="http://www.w3.org/1999/xlink"
   xmlns="http://www.w3.org/2000/svg"
   xmlns:svg="http://www.w3.org/2000/svg"
   xmlns:rdf="http://www.w3.org/1999/02/22-rdf-syntax-ns#"
   xmlns:cc="http://creativecommons.org/ns#"
   xmlns:dc="http://purl.org/dc/elements/1.1/">
  <sodipodi:namedview
     pagecolor="#ffffff"
     bordercolor="#666666"
     borderopacity="1"
     objecttolerance="10"
     gridtolerance="10"
     guidetolerance="10"
     inkscape:pageopacity="0"
     inkscape:pageshadow="2"
     inkscape:window-width="1920"
     inkscape:window-height="1123"
     id="namedview200"
     showgrid="false"
     lock-margins="true"
     fit-margin-top="0"
     fit-margin-left="0"
     fit-margin-right="0"
     fit-margin-bottom="0"
     inkscape:zoom="1"
     inkscape:cx="288.5"
     inkscape:cy="273.5"
     inkscape:window-x="0"
     inkscape:window-y="0"
     inkscape:window-maximized="1"
     inkscape:current-layer="g2709"
     inkscape:snap-bbox="true"
     inkscape:showpageshadow="2"
     inkscape:pagecheckerboard="0"
     inkscape:deskcolor="#d1d1d1" />
  <metadata
     id="metadata22">
    <rdf:RDF>
      <cc:Work
         rdf:about="">
        <dc:format>image/svg+xml</dc:format>
        <dc:type
           rdf:resource="http://purl.org/dc/dcmitype/StillImage" />
        <dc:title />
      </cc:Work>
    </rdf:RDF>
  </metadata>
  <defs
     id="defs12">
    <linearGradient
       id="gradientFill-1"
       x1="0.7414425"
       x2="590.86261"
       y1="3.6658268"
       y2="593.78699"
       gradientUnits="userSpaceOnUse"
       spreadMethod="pad"
       gradientTransform="scale(1.2219423,0.81836924)">
      <stop
         offset="0"
         stop-color="rgb(203,206,208)"
         stop-opacity="1"
         id="stop2" />
      <stop
         offset="1"
         stop-color="rgb(132,131,139)"
         stop-opacity="1"
         id="stop4" />
    </linearGradient>
    <linearGradient
       id="gradientFill-2"
       x1="301.02603"
       x2="703.0675"
       y1="151.4006"
       y2="553.44208"
       gradientUnits="userSpaceOnUse"
       spreadMethod="pad"
       gradientTransform="scale(0.9899476,1.0101545)">
      <stop
         offset="0"
         stop-color="rgb(39,109,195)"
         stop-opacity="1"
         id="stop7" />
      <stop
         offset="1"
         stop-color="rgb(22,92,170)"
         stop-opacity="1"
         id="stop9" />
    </linearGradient>
    <linearGradient
       xlink:href="#gradientFill-1"
       id="linearGradient885"
       gradientUnits="userSpaceOnUse"
       gradientTransform="scale(1.2219423,0.81836924)"
       x1="0.7414425"
       y1="3.6658268"
       x2="590.86261"
       y2="593.78699"
       spreadMethod="pad" />
    <linearGradient
       xlink:href="#gradientFill-2"
       id="linearGradient887"
       gradientUnits="userSpaceOnUse"
       gradientTransform="matrix(1.6841374,0,0,1.718514,-484.06269,-232.47933)"
       x1="301.02603"
       y1="151.4006"
       x2="703.0675"
       y2="553.44208"
       spreadMethod="pad" />
    <linearGradient
       xlink:href="#gradientFill-1"
       id="linearGradient1011"
       gradientUnits="userSpaceOnUse"
       gradientTransform="scale(1.2219423,0.81836924)"
       x1="0.7414425"
       y1="3.6658268"
       x2="590.86261"
       y2="593.78699"
       spreadMethod="pad" />
    <linearGradient
       xlink:href="#gradientFill-2"
       id="linearGradient1013"
       gradientUnits="userSpaceOnUse"
       gradientTransform="scale(0.9899476,1.0101545)"
       x1="301.02603"
       y1="151.4006"
       x2="703.0675"
       y2="553.44208"
       spreadMethod="pad" />
    <linearGradient
       xlink:href="#gradientFill-1"
       id="linearGradient1035"
       gradientUnits="userSpaceOnUse"
       gradientTransform="scale(1.2219423,0.81836924)"
       x1="0.7414425"
       y1="3.6658268"
       x2="590.86261"
       y2="593.78699"
       spreadMethod="pad" />
    <linearGradient
       xlink:href="#gradientFill-2"
       id="linearGradient1037"
       gradientUnits="userSpaceOnUse"
       gradientTransform="scale(0.9899476,1.0101545)"
       x1="301.02603"
       y1="151.4006"
       x2="703.0675"
       y2="553.44208"
       spreadMethod="pad" />
    <linearGradient
       xlink:href="#gradientFill-2"
       id="linearGradient1039"
       gradientUnits="userSpaceOnUse"
       gradientTransform="matrix(1.6841374,0,0,1.718514,-484.06269,-232.47933)"
       x1="301.02603"
       y1="151.4006"
       x2="703.0675"
       y2="553.44208"
       spreadMethod="pad" />
    <linearGradient
       xlink:href="#gradientFill-1"
       id="linearGradient1061"
       gradientUnits="userSpaceOnUse"
       gradientTransform="scale(1.2219423,0.81836924)"
       x1="0.7414425"
       y1="3.6658268"
       x2="590.86261"
       y2="593.78699"
       spreadMethod="pad" />
    <linearGradient
       xlink:href="#gradientFill-2"
       id="linearGradient1063"
       gradientUnits="userSpaceOnUse"
       gradientTransform="scale(0.9899476,1.0101545)"
       x1="301.02603"
       y1="151.4006"
       x2="703.0675"
       y2="553.44208"
       spreadMethod="pad" />
    <linearGradient
       xlink:href="#gradientFill-1"
       id="linearGradient1087"
       gradientUnits="userSpaceOnUse"
       gradientTransform="scale(1.2219423,0.81836924)"
       x1="0.7414425"
       y1="3.6658268"
       x2="590.86261"
       y2="593.78699"
       spreadMethod="pad" />
    <linearGradient
       xlink:href="#gradientFill-2"
       id="linearGradient1089"
       gradientUnits="userSpaceOnUse"
       gradientTransform="scale(0.9899476,1.0101545)"
       x1="301.02603"
       y1="151.4006"
       x2="703.0675"
       y2="553.44208"
       spreadMethod="pad" />
    <linearGradient
       xlink:href="#gradientFill-2"
       id="linearGradient1091"
       gradientUnits="userSpaceOnUse"
       gradientTransform="matrix(1.6841374,0,0,1.718514,-484.06269,-232.47933)"
       x1="301.02603"
       y1="151.4006"
       x2="703.0675"
       y2="553.44208"
       spreadMethod="pad" />
    <linearGradient
       xlink:href="#gradientFill-1-2"
       id="linearGradient1384"
       gradientUnits="userSpaceOnUse"
       gradientTransform="scale(1.2219423,0.81836924)"
       x1="0.7414425"
       y1="3.6658268"
       x2="590.86261"
       y2="593.78699"
       spreadMethod="pad" />
    <linearGradient
       id="gradientFill-1-2"
       x1="0.7414425"
       x2="590.86261"
       y1="3.6658268"
       y2="593.78699"
       gradientUnits="userSpaceOnUse"
       spreadMethod="pad"
       gradientTransform="scale(1.2219423,0.81836924)">
      <stop
         offset="0"
         stop-color="rgb(203,206,208)"
         stop-opacity="1"
         id="stop2-4" />
      <stop
         offset="1"
         stop-color="rgb(132,131,139)"
         stop-opacity="1"
         id="stop4-7" />
    </linearGradient>
    <linearGradient
       xlink:href="#gradientFill-2-9"
       id="linearGradient1386"
       gradientUnits="userSpaceOnUse"
       gradientTransform="scale(0.9899476,1.0101545)"
       x1="301.02603"
       y1="151.4006"
       x2="703.0675"
       y2="553.44208"
       spreadMethod="pad" />
    <linearGradient
       id="gradientFill-2-9"
       x1="301.02603"
       x2="703.0675"
       y1="151.4006"
       y2="553.44208"
       gradientUnits="userSpaceOnUse"
       spreadMethod="pad"
       gradientTransform="scale(0.9899476,1.0101545)">
      <stop
         offset="0"
         stop-color="rgb(39,109,195)"
         stop-opacity="1"
         id="stop7-3" />
      <stop
         offset="1"
         stop-color="rgb(22,92,170)"
         stop-opacity="1"
         id="stop9-9" />
    </linearGradient>
    <linearGradient
       xlink:href="#gradientFill-1-2"
       id="linearGradient1384-2"
       gradientUnits="userSpaceOnUse"
       gradientTransform="scale(1.2219423,0.81836924)"
       x1="0.7414425"
       y1="3.6658268"
       x2="590.86261"
       y2="593.78699"
       spreadMethod="pad" />
    <linearGradient
       xlink:href="#gradientFill-2-9"
       id="linearGradient1386-0"
       gradientUnits="userSpaceOnUse"
       gradientTransform="scale(0.9899476,1.0101545)"
       x1="301.02603"
       y1="151.4006"
       x2="703.0675"
       y2="553.44208"
       spreadMethod="pad" />
    <linearGradient
       xlink:href="#gradientFill-1-2"
       id="linearGradient1601"
       gradientUnits="userSpaceOnUse"
       gradientTransform="scale(1.2219423,0.81836924)"
       x1="0.7414425"
       y1="3.6658268"
       x2="590.86261"
       y2="593.78699"
       spreadMethod="pad" />
    <linearGradient
       xlink:href="#gradientFill-2-9"
       id="linearGradient1603"
       gradientUnits="userSpaceOnUse"
       gradientTransform="scale(0.9899476,1.0101545)"
       x1="301.02603"
       y1="151.4006"
       x2="703.0675"
       y2="553.44208"
       spreadMethod="pad" />
    <linearGradient
       xlink:href="#gradientFill-2"
       id="linearGradient1884"
       gradientUnits="userSpaceOnUse"
       gradientTransform="matrix(1.6841374,0,0,1.718514,-484.06269,-232.47933)"
       x1="301.02603"
       y1="151.4006"
       x2="703.0675"
       y2="553.44208"
       spreadMethod="pad" />
    <linearGradient
       xlink:href="#gradientFill-2"
       id="linearGradient1924"
       gradientUnits="userSpaceOnUse"
       gradientTransform="matrix(1.6841374,0,0,1.718514,-484.06269,-232.47933)"
       x1="301.02603"
       y1="151.4006"
       x2="703.0675"
       y2="553.44208"
       spreadMethod="pad" />
    <linearGradient
       xlink:href="#gradientFill-1-2"
       id="linearGradient2078"
       gradientUnits="userSpaceOnUse"
       gradientTransform="scale(1.2219423,0.81836924)"
       x1="0.7414425"
       y1="3.6658268"
       x2="590.86261"
       y2="593.78699"
       spreadMethod="pad" />
    <linearGradient
       xlink:href="#gradientFill-2-9"
       id="linearGradient2080"
       gradientUnits="userSpaceOnUse"
       gradientTransform="scale(0.9899476,1.0101545)"
       x1="301.02603"
       y1="151.4006"
       x2="703.0675"
       y2="553.44208"
       spreadMethod="pad" />
    <linearGradient
       xlink:href="#gradientFill-1-2"
       id="linearGradient2114"
       gradientUnits="userSpaceOnUse"
       gradientTransform="scale(1.2219423,0.81836924)"
       x1="0.7414425"
       y1="3.6658268"
       x2="590.86261"
       y2="593.78699"
       spreadMethod="pad" />
    <linearGradient
       xlink:href="#gradientFill-2-9"
       id="linearGradient2116"
       gradientUnits="userSpaceOnUse"
       gradientTransform="scale(0.9899476,1.0101545)"
       x1="301.02603"
       y1="151.4006"
       x2="703.0675"
       y2="553.44208"
       spreadMethod="pad" />
    <linearGradient
       xlink:href="#gradientFill-1-2"
       id="linearGradient2118"
       gradientUnits="userSpaceOnUse"
       gradientTransform="scale(1.2219423,0.81836924)"
       x1="0.7414425"
       y1="3.6658268"
       x2="590.86261"
       y2="593.78699"
       spreadMethod="pad" />
    <linearGradient
       xlink:href="#gradientFill-2-9"
       id="linearGradient2120"
       gradientUnits="userSpaceOnUse"
       gradientTransform="scale(0.9899476,1.0101545)"
       x1="301.02603"
       y1="151.4006"
       x2="703.0675"
       y2="553.44208"
       spreadMethod="pad" />
    <linearGradient
       xlink:href="#gradientFill-2"
       id="linearGradient2184"
       gradientUnits="userSpaceOnUse"
       gradientTransform="matrix(1.6841374,0,0,1.718514,-484.06269,-232.47933)"
       x1="301.02603"
       y1="151.4006"
       x2="703.0675"
       y2="553.44208"
       spreadMethod="pad" />
    <linearGradient
       xlink:href="#gradientFill-2"
       id="linearGradient2258"
       gradientUnits="userSpaceOnUse"
       gradientTransform="matrix(1.6841374,0,0,1.718514,-484.06269,-232.47933)"
       x1="301.02603"
       y1="151.4006"
       x2="703.0675"
       y2="553.44208"
       spreadMethod="pad" />
    <linearGradient
       xlink:href="#gradientFill-2"
       id="linearGradient2356"
       gradientUnits="userSpaceOnUse"
       gradientTransform="matrix(1.6841374,0,0,1.718514,-484.06269,-232.47933)"
       x1="301.02603"
       y1="151.4006"
       x2="703.0675"
       y2="553.44208"
       spreadMethod="pad" />
    <linearGradient
       xlink:href="#gradientFill-2"
       id="linearGradient2446"
       gradientUnits="userSpaceOnUse"
       gradientTransform="matrix(1.6841374,0,0,1.718514,-484.06269,-232.47933)"
       x1="301.02603"
       y1="151.4006"
       x2="703.0675"
       y2="553.44208"
       spreadMethod="pad" />
    <linearGradient
       inkscape:collect="always"
       xlink:href="#gradientFill-2"
       id="linearGradient1537"
       gradientUnits="userSpaceOnUse"
       gradientTransform="matrix(0.67858217,0,0,0.69243339,-86.274812,-80.53208)"
       x1="301.02603"
       y1="151.4006"
       x2="703.0675"
       y2="553.44208"
       spreadMethod="pad" />
  </defs>
  <g
     id="g893"
     transform="translate(273.27645,-2339.8323)">
    <g
       id="g851"
       transform="matrix(0.50305093,0,0,0.50305093,-734.8305,124.93988)" />
  </g>
  <g
     id="g2721">
    <path
       d="m 290.73522,177.89121 c 0,0 14.95839,4.5138 23.64881,8.9111 3.01539,1.5259 8.23253,4.5707 11.99577,8.5684 3.68647,3.9154 5.48379,7.8829 5.48379,7.8829 l 58.95065,99.3936 -95.28071,0.043 -44.55573,-83.6702 c 0,0 -9.12364,-15.6761 -14.73767,-20.2214 -4.68315,-3.7914 -6.67993,-5.1411 -11.3103,-5.1411 -3.22309,0 -22.63842,0 -22.63842,0 l 0.0178,108.9724 -84.31315,0.036 V 24.30372 h 169.31178 c 0,0 77.11569,1.3908 77.11569,74.75899 0,73.3682 -73.68832,78.8294 -73.68832,78.8294 z m -36.67279,-93.20789 -51.04236,-0.033 -0.0254,47.33189 51.06773,-0.016 c 0,0 23.64881,-0.073 23.64881,-24.0773 0,-24.48639 -23.64881,-23.20529 -23.64881,-23.20529 z"
       fill="url(#gradientFill-2)"
       fill-rule="evenodd"
       id="path1449"
       style="fill:url(#linearGradient1537);stroke-width:0.685473" />
    <g
       aria-label="CRAN"
       transform="matrix(0,-1.0059564,1.0059564,0,-2.81582,-0.91747184)"
       id="text1455"
       style="font-style:normal;font-weight:normal;font-size:121.637px;line-height:1.25;font-family:sans-serif;fill:#95989d;fill-opacity:1;stroke:none;stroke-width:3.0409">
      <path
         d="m -246.60798,106.49507 q -4.15752,2.13815 -8.73079,3.20723 -4.57326,1.06907 -9.62167,1.06907 -17.93671,0 -27.38021,-11.819218 -9.44349,-11.819221 -9.44349,-34.151014 0,-22.391186 9.44349,-34.210406 9.4435,-11.819221 27.38021,-11.819221 5.04841,0 9.68107,1.069076 4.63266,1.069075 8.67139,3.207225 v 19.480926 q -4.51388,-4.157515 -8.79018,-6.058093 -4.21691,-1.959971 -8.73078,-1.959971 -9.62168,0 -14.5513,7.661706 -4.87023,7.602312 -4.87023,22.628758 0,14.967053 4.87023,22.628759 4.92962,7.602312 14.5513,7.602312 4.51387,0 8.73078,-1.900578 4.2763,-1.959971 8.79018,-6.117486 z"
         style="font-style:normal;font-variant:normal;font-weight:bold;font-stretch:normal;font-family:monospace;-inkscape-font-specification:'monospace Bold';fill:#95989d;fill-opacity:1;stroke-width:3.0409"
         id="path2610" />
      <path
         d="m -189.65003,67.176861 q 2.61329,0.534538 4.51387,2.494509 1.95997,1.900578 4.75145,7.483526 l 16.03612,31.894074 h -19.24335 l -10.69075,-22.391183 q -0.47515,-0.950289 -1.24726,-2.613295 -4.69205,-10.037428 -11.04711,-10.037428 h -5.58295 v 35.041906 h -17.52095 V 20.375124 h 25.30145 q 17.1052,0 24.52933,6.058093 7.48353,6.058093 7.48353,19.718498 0,9.146533 -4.45448,14.551302 -4.45448,5.404769 -12.8289,6.473844 z m -22.50998,-32.072256 v 24.172978 h 8.25564 q 7.18656,0 10.275,-2.791474 3.14783,-2.850867 3.14783,-9.324712 0,-6.473844 -3.08844,-9.265318 -3.08844,-2.791474 -10.33439,-2.791474 z"
         style="font-style:normal;font-variant:normal;font-weight:bold;font-stretch:normal;font-family:monospace;-inkscape-font-specification:'monospace Bold';fill:#95989d;fill-opacity:1;stroke-width:3.0409"
         id="path2612" />
      <path
         d="m -127.76246,36.411252 -8.25563,36.289164 h 16.57066 z m -10.69075,-16.036128 h 21.4409 l 23.935403,88.673846 h -17.520953 l -5.46416,-21.916039 h -23.46027 l -5.34537,21.916039 h -17.52096 z"
         style="font-style:normal;font-variant:normal;font-weight:bold;font-stretch:normal;font-family:monospace;-inkscape-font-specification:'monospace Bold';fill:#95989d;fill-opacity:1;stroke-width:3.0409"
         id="path2614" />
      <path
         d="m -84.049168,20.375124 h 18.827602 L -40.51405,84.816602 V 20.375124 h 15.442197 V 109.04897 H -43.780669 L -68.606971,44.607495 v 64.441475 h -15.442197 z"
         style="font-style:normal;font-variant:normal;font-weight:bold;font-stretch:normal;font-family:monospace;-inkscape-font-specification:'monospace Bold';fill:#95989d;fill-opacity:1;stroke-width:3.0409"
         id="path2616" />
    </g>
  </g>
  <text
     xml:space="preserve"
     style="font-style:normal;font-weight:normal;font-size:26.3852px;line-height:1.25;font-family:sans-serif;fill:#808080;fill-opacity:1;stroke:none;stroke-width:0.659628"
     x="-1.4247932"
     y="444.68103"
     id="text1473"><tspan
       sodipodi:role="line"
       id="tspan1471"
       x="-1.4247932"
       y="444.68103"><tspan
         id="tspan1469"
         x="-1.4247932"
         y="444.68103"
         style="font-style:normal;font-variant:normal;font-weight:normal;font-stretch:normal;font-family:Laksaman;-inkscape-font-specification:Laksaman;fill:#808080;fill-opacity:1;stroke-width:0.659628">gray-ish 60 (blue 4)</tspan></tspan></text>
  <g
     id="g2645"
     transform="translate(0.75595468)" />
  <g
     id="g2709"
     transform="matrix(1.0046899,0,0,1.0046899,-1.5049151,-1.8479948)">
    <g
       aria-label="Network"
       id="text2543"
       style="font-style:normal;font-weight:normal;font-size:37.2778px;line-height:1.25;font-family:sans-serif;fill:#1f65b7;fill-opacity:1;stroke:none;stroke-width:0.931944"
       transform="translate(1.7775231,4)" />
    <text
       xml:space="preserve"
       style="font-size:66.35546617px;text-align:start;writing-mode:lr-tb;direction:ltr;text-anchor:start;fill:#000000;stroke-width:0.995332"
       x="28.371855"
       y="369.11688"
       id="text1"><tspan
         sodipodi:role="line"
         id="tspan1"
         style="stroke-width:0.995332;font-size:66.35546617px"
         x="28.371855"
         y="369.11688" /></text>
    <path
       style="font-weight:bold;font-size:63.8242px;fill:#2268bb;stroke-width:1.13965511;stroke-dasharray:none"
       d="m 45.741227,300.05017 v 8.47665 q -3.583878,-1.49588 -6.918444,-2.24382 -3.334565,-0.74794 -6.29516,-0.74794 -3.178744,0 -4.736952,0.81027 -1.527044,0.7791 -1.527044,2.4308 0,1.34006 1.153074,2.05684 1.184238,0.71677 4.207161,1.05958 l 1.963343,0.28048 q 8.570144,1.09074 11.530739,3.58387 2.960595,2.49314 2.960595,7.82221 0,5.57838 -4.113669,8.38316 -4.113669,2.80477 -12.278679,2.80477 -3.459222,0 -7.167757,-0.56095 -3.677371,-0.52979 -7.572891,-1.62054 v -8.47665 q 3.334565,1.62054 6.824951,2.4308 3.52155,0.81027 7.136593,0.81027 3.272237,0 4.923937,-0.90376 1.651701,-0.90376 1.651701,-2.68012 0,-1.49588 -1.153074,-2.21265 -1.12191,-0.74794 -4.518804,-1.15308 l -1.963342,-0.24931 q -7.448234,-0.93492 -10.439993,-3.45922 -2.99176,-2.5243 -2.99176,-7.66638 0,-5.54722 3.802028,-8.22734 3.802027,-2.68012 11.655396,-2.68012 3.085252,0 6.482145,0.46746 3.396893,0.46746 7.385906,1.46472 z m 22.905659,-11.00095 v 9.9102 h 11.499575 v 7.97803 H 68.646886 v 14.80297 q 0,2.43081 0.966089,3.3034 0.966089,0.84144 3.833192,0.84144 h 5.734205 v 7.97802 h -9.567397 q -6.606802,0 -9.380412,-2.74244 -2.742446,-2.77362 -2.742446,-9.38042 v -14.80297 h -5.54722 v -7.97803 h 5.54722 v -9.9102 z m 44.253104,19.41527 q -1.46471,-0.68561 -2.92943,-0.99725 -1.43355,-0.34281 -2.89826,-0.34281 -4.30066,0 -6.63797,2.77361 -2.306149,2.74245 -2.306149,7.88453 v 16.08071 H 86.971412 v -34.90386 h 11.156769 v 5.73421 q 2.150329,-3.42806 4.923939,-4.98627 2.80477,-1.58937 6.70029,-1.58937 0.56096,0 1.21541,0.0623 0.65444,0.0312 1.90101,0.18698 z m 5.17325,11.81122 v -21.31629 h 11.2191 v 3.49039 q 0,2.83594 -0.0312,7.13659 -0.0312,4.26949 -0.0312,5.70304 0,4.20716 0.21815,6.07701 0.21815,1.83869 0.74794,2.68012 0.68561,1.09075 1.77636,1.68287 1.12191,0.59211 2.55546,0.59211 3.49038,0 5.48489,-2.68011 1.99451,-2.68012 1.99451,-7.44824 v -17.23378 h 11.15677 v 34.90386 h -11.15677 v -5.04859 q -2.5243,3.05409 -5.36024,4.5188 -2.80477,1.43355 -6.20167,1.43355 -6.04584,0 -9.22459,-3.70853 -3.14758,-3.70854 -3.14758,-10.7828 z m 74.01488,-20.22554 v 9.09993 q -2.27498,-1.55821 -4.58113,-2.30615 -2.27498,-0.74794 -4.73695,-0.74794 -4.67462,0 -7.29241,2.74245 -2.58663,2.71128 -2.58663,7.60406 0,4.89277 2.58663,7.63522 2.61779,2.71128 7.29241,2.71128 2.61779,0 4.9551,-0.77911 2.36848,-0.7791 4.36298,-2.30614 v 9.13109 q -2.61779,0.96609 -5.32907,1.43356 -2.68012,0.49862 -5.3914,0.49862 -9.44274,0 -14.77181,-4.83044 -5.32907,-4.86161 -5.32907,-13.49408 0,-8.63248 5.32907,-13.46292 5.32907,-4.86161 14.77181,-4.86161 2.74245,0 5.3914,0.49863 2.68012,0.46746 5.32907,1.43355 z m 37.83329,0 v 9.09993 q -2.27499,-1.55821 -4.58114,-2.30615 -2.27498,-0.74794 -4.73695,-0.74794 -4.67462,0 -7.29241,2.74245 -2.58663,2.71128 -2.58663,7.60406 0,4.89277 2.58663,7.63522 2.61779,2.71128 7.29241,2.71128 2.61779,0 4.9551,-0.77911 2.36848,-0.7791 4.36299,-2.30614 v 9.13109 q -2.61779,0.96609 -5.32908,1.43356 -2.68011,0.49862 -5.39139,0.49862 -9.44275,0 -14.77182,-4.83044 -5.32907,-4.86161 -5.32907,-13.49408 0,-8.63248 5.32907,-13.46292 5.32907,-4.86161 14.77182,-4.86161 2.74244,0 5.39139,0.49863 2.68012,0.46746 5.32908,1.43355 z m 44.72057,12.55915 v 21.25396 h -11.21909 v -3.45922 -12.74614 q 0,-4.58113 -0.21815,-6.29516 -0.18699,-1.71403 -0.68561,-2.5243 -0.65445,-1.09074 -1.77636,-1.68286 -1.12191,-0.62329 -2.55546,-0.62329 -3.49039,0 -5.4849,2.71128 -1.9945,2.68012 -1.9945,7.44824 v 17.17145 h -11.15677 v -48.49143 h 11.15677 v 18.69849 q 2.5243,-3.05408 5.36023,-4.48763 2.83594,-1.46472 6.264,-1.46472 6.04585,0 9.16226,3.70853 3.14758,3.70854 3.14758,10.7828 z m 25.99091,5.54722 q -3.49038,0 -5.26674,1.18424 -1.74519,1.18424 -1.74519,3.49039 0,2.11916 1.40239,3.33456 1.43355,1.18424 3.95784,1.18424 3.14758,0 5.29791,-2.24382 2.15033,-2.27498 2.15033,-5.67187 v -1.27774 z m 17.0468,-4.20716 v 19.9139 h -11.25026 v -5.17325 q -2.24382,3.17875 -5.0486,4.64346 -2.80477,1.43355 -6.82495,1.43355 -5.42256,0 -8.81945,-3.14758 -3.36573,-3.17874 -3.36573,-8.22734 0,-6.13934 4.20716,-9.00644 4.23832,-2.8671 13.27593,-2.8671 h 6.57564 v -0.8726 q 0,-2.64895 -2.088,-3.86435 -2.088,-1.24657 -6.51331,-1.24657 -3.58388,0 -6.66913,0.71678 -3.08525,0.71677 -5.73421,2.15032 v -8.50781 q 3.58388,-0.8726 7.19893,-1.3089 3.61504,-0.46746 7.23008,-0.46746 9.44274,0 13.61874,3.7397 4.20716,3.70853 4.20716,12.09169 z m 45.46852,-1.34006 v 21.25396 h -11.2191 v -3.45922 -12.80847 q 0,-4.5188 -0.21815,-6.23283 -0.18698,-1.71403 -0.68561,-2.5243 -0.65445,-1.09074 -1.77636,-1.68286 -1.12191,-0.62329 -2.55546,-0.62329 -3.49038,0 -5.48489,2.71128 -1.99451,2.68012 -1.99451,7.44824 v 17.17145 h -11.15677 v -34.90386 h 11.15677 v 5.11092 q 2.5243,-3.05408 5.36024,-4.48763 2.83594,-1.46472 6.264,-1.46472 6.04584,0 9.16226,3.70853 3.14758,3.70854 3.14758,10.7828 z m 34.09356,15.33277 q -2.30615,3.05409 -5.07976,4.48764 -2.77361,1.43355 -6.41981,1.43355 -6.38866,0 -10.56465,-5.01743 -4.176,-5.04859 -4.176,-12.83963 0,-7.82221 4.176,-12.80847 4.17599,-5.01743 10.56465,-5.01743 3.6462,0 6.41981,1.43355 2.77361,1.43355 5.07976,4.5188 v -5.17325 h 11.2191 v 31.38231 q 0,8.41432 -5.32907,12.83964 -5.29791,4.45647 -15.3951,4.45647 -3.27223,0 -6.32632,-0.49863 -3.05409,-0.49862 -6.13934,-1.52704 v -8.6948 q 2.92943,1.68286 5.7342,2.49313 2.80478,0.84143 5.64072,0.84143 5.48489,0 8.04035,-2.39964 2.55546,-2.39964 2.55546,-7.51056 z m -7.35474,-21.72142 q -3.45922,0 -5.3914,2.55546 -1.93218,2.55546 -1.93218,7.23009 0,4.79928 1.86985,7.29241 1.86985,2.46197 5.45373,2.46197 3.49039,0 5.42256,-2.55546 1.93218,-2.55546 1.93218,-7.19892 0,-4.67463 -1.93218,-7.23009 -1.93217,-2.55546 -5.42256,-2.55546 z m 64.13586,10.09719 v 3.17874 h -26.0844 q 0.40513,3.92669 2.83594,5.89003 2.4308,1.96334 6.79378,1.96334 3.52155,0 7.19892,-1.02842 3.70854,-1.05958 7.60406,-3.17874 v 8.60131 q -3.95785,1.49588 -7.9157,2.24382 -3.95785,0.7791 -7.9157,0.7791 -9.4739,0 -14.74064,-4.79928 -5.23558,-4.83044 -5.23558,-13.52524 0,-8.53898 5.14208,-13.43176 5.17326,-4.89277 14.21086,-4.89277 8.22734,0 13.15128,4.9551 4.9551,4.9551 4.9551,13.24477 z m -11.46841,-3.70854 q 0,-3.17874 -1.86985,-5.11092 -1.83869,-1.96334 -4.83045,-1.96334 -3.24107,0 -5.26674,1.83869 -2.02567,1.80752 -2.5243,5.23557 z"
       id="text2"
       transform="scale(0.87331473,1.1450626)"
       aria-label="strucchange" />
  </g>
</svg>
